  0
SECTION
  2
HEADER
  9
$ACADVER
  1
AC1014
  9
$HANDSEED
  5
FFFF
  9
$MEASUREMENT
 70
     1
  0
ENDSEC
  0
SECTION
  2
TABLES
  0
TABLE
  2
VPORT
  5
8
330
0
100
AcDbSymbolTable
 70
     4
  0
VPORT
  5
2E
330
8
100
AcDbSymbolTableRecord
100
AcDbViewportTableRecord
  2
*ACTIVE
 70
     0
 10
0.0
 20
0.0
 11
1.0
 21
1.0
 12
210.0
 22
148.5
 13
0.0
 23
0.0
 14
10.0
 24
10.0
 15
10.0
 25
10.0
 16
0.0
 26
0.0
 36
1.0
 17
0.0
 27
0.0
 37
0.0
 40
341.0
 41
1.24
 42
50.0
 43
0.0
 44
0.0
 50
0.0
 51
0.0
 71
     0
 72
   100
 73
     1
 74
     3
 75
     0
 76
     0
 77
     0
 78
     0
  0
ENDTAB
  0
TABLE
  2
LTYPE
  5
5
330
0
100
AcDbSymbolTable
 70
     1
  0
LTYPE
  5
14
330
5
100
AcDbSymbolTableRecord
100
AcDbLinetypeTableRecord
  2
BYBLOCK
 70
     0
  3

 72
    65
 73
     0
 40
0.0
  0
LTYPE
  5
15
330
5
100
AcDbSymbolTableRecord
100
AcDbLinetypeTableRecord
  2
BYLAYER
 70
     0
  3

 72
    65
 73
     0
 40
0.0
  0
LTYPE
  5
16
330
5
100
AcDbSymbolTableRecord
100
AcDbLinetypeTableRecord
  2
CONTINUOUS
 70
     0
  3
Solid line
 72
    65
 73
     0
 40
0.0
  0
ENDTAB
  0
TABLE
  2
LAYER
  5
2
100
AcDbSymbolTable
 70
2
  0
LAYER
  5
50
100
AcDbSymbolTableRecord
100
AcDbLayerTableRecord
  2
0
 70
0
  6
CONTINUOUS
  0
LAYER
  5
51
100
AcDbSymbolTableRecord
100
AcDbLayerTableRecord
  2
Calque_1
 70
0
  6
CONTINUOUS
  0
ENDTAB
  0
TABLE
  2
STYLE
  5
3
330
0
100
AcDbSymbolTable
 70
     1
  0
STYLE
  5
11
330
3
100
AcDbSymbolTableRecord
100
AcDbTextStyleTableRecord
  2
STANDARD
 70
     0
 40
0.0
 41
1.0
 50
0.0
 71
     0
 42
2.5
  3
txt
  4

  0
ENDTAB
  0
TABLE
  2
VIEW
  5
6
330
0
100
AcDbSymbolTable
 70
     0
  0
ENDTAB
  0
TABLE
  2
UCS
  5
7
330
0
100
AcDbSymbolTable
 70
     0
  0
ENDTAB
  0
TABLE
  2
APPID
  5
9
330
0
100
AcDbSymbolTable
 70
     2
  0
APPID
  5
12
330
9
100
AcDbSymbolTableRecord
100
AcDbRegAppTableRecord
  2
ACAD
 70
     0
  0
ENDTAB
  0
TABLE
  2
DIMSTYLE
  5
A
330
0
100
AcDbSymbolTable
 70
     1
  0
DIMSTYLE
105
27
330
A
100
AcDbSymbolTableRecord
100
AcDbDimStyleTableRecord
  2
ISO-25
 70
     0
  3

  4

  5

  6

  7

 40
1.0
 41
2.5
 42
0.625
 43
3.75
 44
1.25
 45
0.0
 46
0.0
 47
0.0
 48
0.0
140
2.5
141
2.5
142
0.0
143
0.03937007874016
144
1.0
145
0.0
146
1.0
147
0.625
 71
     0
 72
     0
 73
     0
 74
     0
 75
     0
 76
     0
 77
     1
 78
     8
170
     0
171
     3
172
     1
173
     0
174
     0
175
     0
176
     0
177
     0
178
     0
270
     2
271
     2
272
     2
273
     2
274
     3
340
11
275
     0
280
     0
281
     0
282
     0
283
     0
284
     8
285
     0
286
     0
287
     3
288
     0
  0
ENDTAB
  0
TABLE
  2
BLOCK_RECORD
  5
1
330
0
100
AcDbSymbolTable
 70
     1
  0
BLOCK_RECORD
  5
1F
330
1
100
AcDbSymbolTableRecord
100
AcDbBlockTableRecord
  2
*MODEL_SPACE
  0
BLOCK_RECORD
  5
1B
330
1
100
AcDbSymbolTableRecord
100
AcDbBlockTableRecord
  2
*PAPER_SPACE
  0
ENDTAB
  0
ENDSEC
  0
SECTION
  2
BLOCKS
  0
BLOCK
  5
20
330
1F
100
AcDbEntity
  8
0
100
AcDbBlockBegin
  2
*MODEL_SPACE
 70
     0
 10
0.0
 20
0.0
 30
0.0
  3
*MODEL_SPACE
  1

  0
ENDBLK
  5
21
330
1F
100
AcDbEntity
  8
0
100
AcDbBlockEnd
  0
BLOCK
  5
1C
330
1B
100
AcDbEntity
 67
     1
  8
0
100
AcDbBlockBegin
  2
*PAPER_SPACE
  1

  0
ENDBLK
  5
1D
330
1B
100
AcDbEntity
 67
     1
  8
0
100
AcDbBlockEnd
  0
ENDSEC
  0
SECTION
  2
ENTITIES
  0
LINE
  5
100
100
AcDbEntity
  8
Calque_1
 62
1
100
AcDbLine
 10
82.491876
 20
120.198173
 30
0.0
 11
83.767197
 21
120.934479
 31
0.0
  0
SPLINE
  5
101
100
AcDbEntity
  8
Calque_1
 62
1
100
AcDbSpline
 70
8
 71
3
 72
8
 73
4
 74
0
 40
0
 40
0
 40
0
 40
0
 40
1
 40
1
 40
1
 40
1
 10
83.767197
 20
120.934479
 30
0.0
 10
84.491254
 20
121.352516
 30
0.0
 10
84.737656
 20
122.271897
 30
0.0
 10
84.319665
 20
122.995879
 30
0.0
  0
LINE
  5
102
100
AcDbEntity
  8
Calque_1
 62
1
100
AcDbLine
 10
84.319665
 20
122.995879
 30
0.0
 11
76.204493
 21
137.051767
 31
0.0
  0
SPLINE
  5
103
100
AcDbEntity
  8
Calque_1
 62
1
100
AcDbSpline
 70
8
 71
3
 72
8
 73
4
 74
0
 40
0
 40
0
 40
0
 40
0
 40
1
 40
1
 40
1
 40
1
 10
76.204493
 20
137.051767
 30
0.0
 10
75.786505
 20
137.775746
 30
0.0
 10
74.867062
 20
138.022104
 30
0.0
 10
74.143035
 20
137.604017
 30
0.0
  0
LINE
  5
104
100
AcDbEntity
  8
Calque_1
 62
1
100
AcDbLine
 10
74.143035
 20
137.604017
 30
0.0
 11
72.886281
 21
136.854353
 31
0.0
  0
LINE
  5
105
100
AcDbEntity
  8
Calque_1
 62
1
100
AcDbLine
 10
72.886281
 20
136.854353
 30
0.0
 11
63.293252
 21
120.195085
 31
0.0
  0
LINE
  5
106
100
AcDbEntity
  8
Calque_1
 62
1
100
AcDbLine
 10
63.293252
 20
120.195085
 30
0.0
 11
62.003765
 21
120.906737
 31
0.0
  0
SPLINE
  5
107
100
AcDbEntity
  8
Calque_1
 62
1
100
AcDbSpline
 70
8
 71
3
 72
8
 73
4
 74
0
 40
0
 40
0
 40
0
 40
0
 40
1
 40
1
 40
1
 40
1
 10
62.003765
 20
120.906737
 30
0.0
 10
61.271815
 20
121.310690
 30
0.0
 10
60.360302
 20
121.078311
 30
0.0
 10
59.942247
 20
120.354298
 30
0.0
  0
LINE
  5
108
100
AcDbEntity
  8
Calque_1
 62
1
100
AcDbLine
 10
59.942247
 20
120.354298
 30
0.0
 11
51.825730
 21
106.297634
 31
0.0
  0
SPLINE
  5
109
100
AcDbEntity
  8
Calque_1
 62
1
100
AcDbSpline
 70
8
 71
3
 72
8
 73
4
 74
0
 40
0
 40
0
 40
0
 40
0
 40
1
 40
1
 40
1
 40
1
 10
51.825730
 20
106.297634
 30
0.0
 10
51.407671
 20
105.573618
 30
0.0
 10
51.653950
 20
104.654203
 30
0.0
 10
52.378009
 20
104.236280
 30
0.0
  0
LINE
  5
10a
100
AcDbEntity
  8
Calque_1
 62
1
100
AcDbLine
 10
52.378009
 20
104.236280
 30
0.0
 11
53.639136
 21
103.475617
 31
0.0
  0
LINE
  5
10b
100
AcDbEntity
  8
Calque_1
 62
1
100
AcDbLine
 10
53.639136
 20
103.475617
 30
0.0
 11
44.041655
 21
86.854134
 31
0.0
  0
LINE
  5
10c
100
AcDbEntity
  8
Calque_1
 62
1
100
AcDbLine
 10
44.041655
 20
86.854134
 30
0.0
 11
42.752251
 21
87.565828
 31
0.0
  0
SPLINE
  5
10d
100
AcDbEntity
  8
Calque_1
 62
1
100
AcDbSpline
 70
8
 71
3
 72
8
 73
4
 74
0
 40
0
 40
0
 40
0
 40
0
 40
1
 40
1
 40
1
 40
1
 10
42.752251
 20
87.565828
 30
0.0
 10
42.020324
 20
87.969818
 30
0.0
 10
41.108795
 20
87.737413
 30
0.0
 10
40.690733
 20
87.013389
 30
0.0
  0
LINE
  5
10e
100
AcDbEntity
  8
Calque_1
 62
1
100
AcDbLine
 10
40.690733
 20
87.013389
 30
0.0
 11
32.574216
 21
72.956724
 31
0.0
  0
SPLINE
  5
10f
100
AcDbEntity
  8
Calque_1
 62
1
100
AcDbSpline
 70
8
 71
3
 72
8
 73
4
 74
0
 40
0
 40
0
 40
0
 40
0
 40
1
 40
1
 40
1
 40
1
 10
32.574216
 20
72.956724
 30
0.0
 10
32.156157
 20
72.232709
 30
0.0
 10
32.421209
 20
71.344231
 30
0.0
 10
33.126496
 20
70.895370
 30
0.0
  0
LINE
  5
110
100
AcDbEntity
  8
Calque_1
 62
1
100
AcDbLine
 10
33.126496
 20
70.895370
 30
0.0
 11
34.354974
 21
70.169043
 31
0.0
  0
LINE
  5
111
100
AcDbEntity
  8
Calque_1
 62
1
100
AcDbLine
 10
34.354974
 20
70.169043
 30
0.0
 11
53.576858
 21
70.169608
 31
0.0
  0
LINE
  5
112
100
AcDbEntity
  8
Calque_1
 62
1
100
AcDbLine
 10
53.576858
 20
70.169608
 30
0.0
 11
53.604814
 21
68.697367
 31
0.0
  0
SPLINE
  5
113
100
AcDbEntity
  8
Calque_1
 62
1
100
AcDbSpline
 70
8
 71
3
 72
8
 73
4
 74
0
 40
0
 40
0
 40
0
 40
0
 40
1
 40
1
 40
1
 40
1
 10
53.604814
 20
68.697367
 30
0.0
 10
53.620687
 20
67.861504
 30
0.0
 10
54.277809
 20
67.188206
 30
0.0
 10
55.113856
 20
67.188254
 30
0.0
  0
LINE
  5
114
100
AcDbEntity
  8
Calque_1
 62
1
100
AcDbLine
 10
55.113856
 20
67.188254
 30
0.0
 11
71.345547
 21
67.189101
 31
0.0
  0
SPLINE
  5
115
100
AcDbEntity
  8
Calque_1
 62
1
100
AcDbSpline
 70
8
 71
3
 72
8
 73
4
 74
0
 40
0
 40
0
 40
0
 40
0
 40
1
 40
1
 40
1
 40
1
 10
71.345547
 20
67.189101
 30
0.0
 10
72.181602
 20
67.189149
 30
0.0
 10
72.854715
 20
67.862195
 30
0.0
 10
72.854734
 20
68.698203
 30
0.0
  0
LINE
  5
116
100
AcDbEntity
  8
Calque_1
 62
1
100
AcDbLine
 10
72.854734
 20
68.698203
 30
0.0
 11
72.883116
 21
70.170632
 31
0.0
  0
LINE
  5
117
100
AcDbEntity
  8
Calque_1
 62
1
100
AcDbLine
 10
72.883116
 20
70.170632
 30
0.0
 11
92.104707
 21
70.171479
 31
0.0
  0
LINE
  5
118
100
AcDbEntity
  8
Calque_1
 62
1
100
AcDbLine
 10
92.104707
 20
70.171479
 30
0.0
 11
92.104653
 21
68.699027
 31
0.0
  0
SPLINE
  5
119
100
AcDbEntity
  8
Calque_1
 62
1
100
AcDbSpline
 70
8
 71
3
 72
8
 73
4
 74
0
 40
0
 40
0
 40
0
 40
0
 40
1
 40
1
 40
1
 40
1
 10
92.104653
 20
68.699027
 30
0.0
 10
92.104622
 20
67.863014
 30
0.0
 10
92.777646
 20
67.190030
 30
0.0
 10
93.613695
 20
67.190069
 30
0.0
  0
LINE
  5
11a
100
AcDbEntity
  8
Calque_1
 62
1
100
AcDbLine
 10
93.613695
 20
67.190069
 30
0.0
 11
109.845382
 21
67.190916
 31
0.0
  0
SPLINE
  5
11b
100
AcDbEntity
  8
Calque_1
 62
1
100
AcDbSpline
 70
8
 71
3
 72
8
 73
4
 74
0
 40
0
 40
0
 40
0
 40
0
 40
1
 40
1
 40
1
 40
1
 10
109.845382
 20
67.190916
 30
0.0
 10
110.681434
 20
67.190955
 30
0.0
 10
111.351706
 20
67.864016
 30
0.0
 10
111.354568
 20
68.700017
 30
0.0
  0
LINE
  5
11c
100
AcDbEntity
  8
Calque_1
 62
1
100
AcDbLine
 10
111.354568
 20
68.700017
 30
0.0
 11
111.359648
 21
70.180922
 31
0.0
  0
LINE
  5
11d
100
AcDbEntity
  8
Calque_1
 62
1
100
AcDbLine
 10
111.359648
 20
70.180922
 30
0.0
 11
101.754378
 21
86.834641
 31
0.0
  0
LINE
  5
11e
100
AcDbEntity
  8
Calque_1
 62
1
100
AcDbLine
 10
101.754378
 20
86.834641
 30
0.0
 11
103.015517
 21
87.595326
 31
0.0
  0
SPLINE
  5
11f
100
AcDbEntity
  8
Calque_1
 62
1
100
AcDbSpline
 70
8
 71
3
 72
8
 73
4
 74
0
 40
0
 40
0
 40
0
 40
0
 40
1
 40
1
 40
1
 40
1
 10
103.015517
 20
87.595326
 30
0.0
 10
103.731430
 20
88.027160
 30
0.0
 10
103.985974
 20
88.932743
 30
0.0
 10
103.567984
 20
89.656725
 30
0.0
  0
LINE
  5
120
100
AcDbEntity
  8
Calque_1
 62
1
100
AcDbLine
 10
103.567984
 20
89.656725
 30
0.0
 11
95.452813
 21
103.712613
 31
0.0
  0
SPLINE
  5
121
100
AcDbEntity
  8
Calque_1
 62
1
100
AcDbSpline
 70
8
 71
3
 72
8
 73
4
 74
0
 40
0
 40
0
 40
0
 40
0
 40
1
 40
1
 40
1
 40
1
 10
95.452813
 20
103.712613
 30
0.0
 10
95.034825
 20
104.436592
 30
0.0
 10
94.115430
 20
104.682865
 30
0.0
 10
93.391355
 20
104.264863
 30
0.0
  0
LINE
  5
122
100
AcDbEntity
  8
Calque_1
 62
1
100
AcDbLine
 10
93.391355
 20
104.264863
 30
0.0
 11
92.101924
 21
103.553104
 31
0.0
  0
LINE
  5
123
100
AcDbEntity
  8
Calque_1
 62
1
100
AcDbLine
 10
92.101924
 20
103.553104
 30
0.0
 11
82.506130
 21
120.173606
 31
0.0
  0
LINE
  5
124
100
AcDbEntity
  8
Calque_1
 62
7
100
AcDbLine
 10
72.854792
 20
70.170703
 30
0.0
 11
72.859110
 21
92.406183
 31
0.0
  0
LINE
  5
125
100
AcDbEntity
  8
Calque_1
 62
7
100
AcDbLine
 10
53.664434
 20
103.497326
 30
0.0
 11
72.833531
 21
92.450486
 31
0.0
  0
LINE
  5
126
100
AcDbEntity
  8
Calque_1
 62
7
100
AcDbLine
 10
92.098402
 20
103.559151
 30
0.0
 11
72.929882
 21
92.451649
 31
0.0
  0
SPLINE
  5
127
100
AcDbEntity
  8
Calque_1
 62
7
100
AcDbSpline
 70
8
 71
3
 72
8
 73
4
 74
0
 40
0
 40
0
 40
0
 40
0
 40
1
 40
1
 40
1
 40
1
 10
100.603437
 20
78.323781
 30
0.0
 10
100.603437
 20
77.408784
 30
0.0
 10
100.239956
 20
76.531263
 30
0.0
 10
99.592955
 20
75.884262
 30
0.0
  0
SPLINE
  5
128
100
AcDbEntity
  8
Calque_1
 62
7
100
AcDbSpline
 70
8
 71
3
 72
8
 73
4
 74
0
 40
0
 40
0
 40
0
 40
0
 40
1
 40
1
 40
1
 40
1
 10
99.592955
 20
75.884262
 30
0.0
 10
98.945955
 20
75.237262
 30
0.0
 10
98.068433
 20
74.873781
 30
0.0
 10
97.153436
 20
74.873781
 30
0.0
  0
SPLINE
  5
129
100
AcDbEntity
  8
Calque_1
 62
7
100
AcDbSpline
 70
8
 71
3
 72
8
 73
4
 74
0
 40
0
 40
0
 40
0
 40
0
 40
1
 40
1
 40
1
 40
1
 10
97.153436
 20
74.873781
 30
0.0
 10
96.238440
 20
74.873781
 30
0.0
 10
95.360918
 20
75.237262
 30
0.0
 10
94.713918
 20
75.884262
 30
0.0
  0
SPLINE
  5
12a
100
AcDbEntity
  8
Calque_1
 62
7
100
AcDbSpline
 70
8
 71
3
 72
8
 73
4
 74
0
 40
0
 40
0
 40
0
 40
0
 40
1
 40
1
 40
1
 40
1
 10
94.713918
 20
75.884262
 30
0.0
 10
94.066917
 20
76.531263
 30
0.0
 10
93.703436
 20
77.408784
 30
0.0
 10
93.703436
 20
78.323781
 30
0.0
  0
SPLINE
  5
12b
100
AcDbEntity
  8
Calque_1
 62
7
100
AcDbSpline
 70
8
 71
3
 72
8
 73
4
 74
0
 40
0
 40
0
 40
0
 40
0
 40
1
 40
1
 40
1
 40
1
 10
93.703436
 20
78.323781
 30
0.0
 10
93.703436
 20
79.238778
 30
0.0
 10
94.066917
 20
80.116299
 30
0.0
 10
94.713918
 20
80.763300
 30
0.0
  0
SPLINE
  5
12c
100
AcDbEntity
  8
Calque_1
 62
7
100
AcDbSpline
 70
8
 71
3
 72
8
 73
4
 74
0
 40
0
 40
0
 40
0
 40
0
 40
1
 40
1
 40
1
 40
1
 10
94.713918
 20
80.763300
 30
0.0
 10
95.360918
 20
81.410300
 30
0.0
 10
96.238440
 20
81.773781
 30
0.0
 10
97.153436
 20
81.773781
 30
0.0
  0
SPLINE
  5
12d
100
AcDbEntity
  8
Calque_1
 62
7
100
AcDbSpline
 70
8
 71
3
 72
8
 73
4
 74
0
 40
0
 40
0
 40
0
 40
0
 40
1
 40
1
 40
1
 40
1
 10
97.153436
 20
81.773781
 30
0.0
 10
98.068433
 20
81.773781
 30
0.0
 10
98.945955
 20
81.410300
 30
0.0
 10
99.592955
 20
80.763300
 30
0.0
  0
SPLINE
  5
12e
100
AcDbEntity
  8
Calque_1
 62
7
100
AcDbSpline
 70
8
 71
3
 72
8
 73
4
 74
0
 40
0
 40
0
 40
0
 40
0
 40
1
 40
1
 40
1
 40
1
 10
99.592955
 20
80.763300
 30
0.0
 10
100.239956
 20
80.116299
 30
0.0
 10
100.603437
 20
79.238778
 30
0.0
 10
100.603437
 20
78.323781
 30
0.0
  0
LINE
  5
12f
100
AcDbEntity
  8
Calque_1
 62
7
100
AcDbLine
 10
100.603437
 20
78.323781
 30
0.0
 11
100.603437
 21
78.323781
 31
0.0
  0
LINE
  5
130
100
AcDbEntity
  8
Calque_1
 62
7
100
AcDbLine
 10
45.897578
 20
81.773781
 30
0.0
 11
52.124465
 21
81.773781
 31
0.0
  0
SPLINE
  5
131
100
AcDbEntity
  8
Calque_1
 62
7
100
AcDbSpline
 70
8
 71
3
 72
8
 73
4
 74
0
 40
0
 40
0
 40
0
 40
0
 40
1
 40
1
 40
1
 40
1
 10
52.124465
 20
81.773781
 30
0.0
 10
52.310918
 20
81.773781
 30
0.0
 10
52.461020
 20
81.623676
 30
0.0
 10
52.461020
 20
81.437223
 30
0.0
  0
LINE
  5
132
100
AcDbEntity
  8
Calque_1
 62
7
100
AcDbLine
 10
52.461020
 20
81.437223
 30
0.0
 11
52.461020
 21
75.210336
 31
0.0
  0
SPLINE
  5
133
100
AcDbEntity
  8
Calque_1
 62
7
100
AcDbSpline
 70
8
 71
3
 72
8
 73
4
 74
0
 40
0
 40
0
 40
0
 40
0
 40
1
 40
1
 40
1
 40
1
 10
52.461020
 20
75.210336
 30
0.0
 10
52.461020
 20
75.023886
 30
0.0
 10
52.310918
 20
74.873781
 30
0.0
 10
52.124465
 20
74.873781
 30
0.0
  0
LINE
  5
134
100
AcDbEntity
  8
Calque_1
 62
7
100
AcDbLine
 10
52.124465
 20
74.873781
 30
0.0
 11
45.897578
 21
74.873781
 31
0.0
  0
SPLINE
  5
135
100
AcDbEntity
  8
Calque_1
 62
7
100
AcDbSpline
 70
8
 71
3
 72
8
 73
4
 74
0
 40
0
 40
0
 40
0
 40
0
 40
1
 40
1
 40
1
 40
1
 10
45.897578
 20
74.873781
 30
0.0
 10
45.711125
 20
74.873781
 30
0.0
 10
45.561020
 20
75.023886
 30
0.0
 10
45.561020
 20
75.210336
 30
0.0
  0
LINE
  5
136
100
AcDbEntity
  8
Calque_1
 62
7
100
AcDbLine
 10
45.561020
 20
75.210336
 30
0.0
 11
45.561020
 21
81.437223
 31
0.0
  0
SPLINE
  5
137
100
AcDbEntity
  8
Calque_1
 62
7
100
AcDbSpline
 70
8
 71
3
 72
8
 73
4
 74
0
 40
0
 40
0
 40
0
 40
0
 40
1
 40
1
 40
1
 40
1
 10
45.561020
 20
81.437223
 30
0.0
 10
45.561020
 20
81.623676
 30
0.0
 10
45.711125
 20
81.773781
 30
0.0
 10
45.897578
 20
81.773781
 30
0.0
  0
LINE
  5
138
100
AcDbEntity
  8
Calque_1
 62
7
100
AcDbLine
 10
45.897578
 20
81.773781
 30
0.0
 11
45.897578
 21
81.773781
 31
0.0
  0
LINE
  5
139
100
AcDbEntity
  8
Calque_1
 62
7
100
AcDbLine
 10
69.538184
 20
123.711411
 30
0.0
 11
76.224751
 21
116.786036
 31
0.0
  0
LINE
  5
13a
100
AcDbEntity
  8
Calque_1
 62
7
100
AcDbLine
 10
76.224751
 20
123.711411
 30
0.0
 11
69.538184
 21
116.786036
 31
0.0
  0
LINE
  5
13b
100
AcDbEntity
  8
Calque_1
 62
1
100
AcDbLine
 10
31.094652
 20
139.905234
 30
0.0
 11
262.994744
 21
139.905234
 31
0.0
  0
LINE
  5
13c
100
AcDbEntity
  8
Calque_1
 62
1
100
AcDbLine
 10
262.994744
 20
139.905234
 30
0.0
 11
262.994744
 21
65.005139
 31
0.0
  0
LINE
  5
13d
100
AcDbEntity
  8
Calque_1
 62
1
100
AcDbLine
 10
262.994744
 20
65.005139
 30
0.0
 11
31.094652
 21
65.005139
 31
0.0
  0
LINE
  5
13e
100
AcDbEntity
  8
Calque_1
 62
1
100
AcDbLine
 10
31.094652
 20
65.005139
 30
0.0
 11
31.094652
 21
139.905234
 31
0.0
  0
LINE
  5
13f
100
AcDbEntity
  8
Calque_1
 62
7
100
AcDbLine
 10
168.440554
 20
123.711411
 30
0.0
 11
175.127121
 21
116.786036
 31
0.0
  0
LINE
  5
140
100
AcDbEntity
  8
Calque_1
 62
7
100
AcDbLine
 10
175.127121
 20
123.711411
 30
0.0
 11
168.440554
 21
116.786036
 31
0.0
  0
SPLINE
  5
141
100
AcDbEntity
  8
Calque_1
 62
7
100
AcDbSpline
 70
8
 71
3
 72
8
 73
4
 74
0
 40
0
 40
0
 40
0
 40
0
 40
1
 40
1
 40
1
 40
1
 10
150.856806
 20
78.323781
 30
0.0
 10
150.856806
 20
77.408784
 30
0.0
 10
150.493325
 20
76.531263
 30
0.0
 10
149.846324
 20
75.884262
 30
0.0
  0
SPLINE
  5
142
100
AcDbEntity
  8
Calque_1
 62
7
100
AcDbSpline
 70
8
 71
3
 72
8
 73
4
 74
0
 40
0
 40
0
 40
0
 40
0
 40
1
 40
1
 40
1
 40
1
 10
149.846324
 20
75.884262
 30
0.0
 10
149.199324
 20
75.237262
 30
0.0
 10
148.321803
 20
74.873781
 30
0.0
 10
147.406806
 20
74.873781
 30
0.0
  0
SPLINE
  5
143
100
AcDbEntity
  8
Calque_1
 62
7
100
AcDbSpline
 70
8
 71
3
 72
8
 73
4
 74
0
 40
0
 40
0
 40
0
 40
0
 40
1
 40
1
 40
1
 40
1
 10
147.406806
 20
74.873781
 30
0.0
 10
146.491809
 20
74.873781
 30
0.0
 10
145.614288
 20
75.237262
 30
0.0
 10
144.967287
 20
75.884262
 30
0.0
  0
SPLINE
  5
144
100
AcDbEntity
  8
Calque_1
 62
7
100
AcDbSpline
 70
8
 71
3
 72
8
 73
4
 74
0
 40
0
 40
0
 40
0
 40
0
 40
1
 40
1
 40
1
 40
1
 10
144.967287
 20
75.884262
 30
0.0
 10
144.320287
 20
76.531263
 30
0.0
 10
143.956806
 20
77.408784
 30
0.0
 10
143.956806
 20
78.323781
 30
0.0
  0
SPLINE
  5
145
100
AcDbEntity
  8
Calque_1
 62
7
100
AcDbSpline
 70
8
 71
3
 72
8
 73
4
 74
0
 40
0
 40
0
 40
0
 40
0
 40
1
 40
1
 40
1
 40
1
 10
143.956806
 20
78.323781
 30
0.0
 10
143.956806
 20
79.238778
 30
0.0
 10
144.320287
 20
80.116299
 30
0.0
 10
144.967287
 20
80.763300
 30
0.0
  0
SPLINE
  5
146
100
AcDbEntity
  8
Calque_1
 62
7
100
AcDbSpline
 70
8
 71
3
 72
8
 73
4
 74
0
 40
0
 40
0
 40
0
 40
0
 40
1
 40
1
 40
1
 40
1
 10
144.967287
 20
80.763300
 30
0.0
 10
145.614288
 20
81.410300
 30
0.0
 10
146.491809
 20
81.773781
 30
0.0
 10
147.406806
 20
81.773781
 30
0.0
  0
SPLINE
  5
147
100
AcDbEntity
  8
Calque_1
 62
7
100
AcDbSpline
 70
8
 71
3
 72
8
 73
4
 74
0
 40
0
 40
0
 40
0
 40
0
 40
1
 40
1
 40
1
 40
1
 10
147.406806
 20
81.773781
 30
0.0
 10
148.321803
 20
81.773781
 30
0.0
 10
149.199324
 20
81.410300
 30
0.0
 10
149.846324
 20
80.763300
 30
0.0
  0
SPLINE
  5
148
100
AcDbEntity
  8
Calque_1
 62
7
100
AcDbSpline
 70
8
 71
3
 72
8
 73
4
 74
0
 40
0
 40
0
 40
0
 40
0
 40
1
 40
1
 40
1
 40
1
 10
149.846324
 20
80.763300
 30
0.0
 10
150.493325
 20
80.116299
 30
0.0
 10
150.856806
 20
79.238778
 30
0.0
 10
150.856806
 20
78.323781
 30
0.0
  0
LINE
  5
149
100
AcDbEntity
  8
Calque_1
 62
7
100
AcDbLine
 10
150.856806
 20
78.323781
 30
0.0
 11
150.856806
 21
78.323781
 31
0.0
  0
LINE
  5
14a
100
AcDbEntity
  8
Calque_1
 62
7
100
AcDbLine
 10
196.375350
 20
81.651985
 30
0.0
 11
198.332050
 21
78.262883
 31
0.0
  0
LINE
  5
14b
100
AcDbEntity
  8
Calque_1
 62
7
100
AcDbLine
 10
198.332050
 20
78.262883
 30
0.0
 11
200.288748
 21
74.873781
 31
0.0
  0
LINE
  5
14c
100
AcDbEntity
  8
Calque_1
 62
7
100
AcDbLine
 10
200.288748
 20
74.873781
 30
0.0
 11
196.375350
 21
74.873781
 31
0.0
  0
LINE
  5
14d
100
AcDbEntity
  8
Calque_1
 62
7
100
AcDbLine
 10
196.375350
 20
74.873781
 30
0.0
 11
192.461952
 21
74.873781
 31
0.0
  0
LINE
  5
14e
100
AcDbEntity
  8
Calque_1
 62
7
100
AcDbLine
 10
192.461952
 20
74.873781
 30
0.0
 11
194.418653
 21
78.262883
 31
0.0
  0
LINE
  5
14f
100
AcDbEntity
  8
Calque_1
 62
7
100
AcDbLine
 10
194.418653
 20
78.262883
 30
0.0
 11
196.375350
 21
81.651985
 31
0.0
  0
LINE
  5
150
100
AcDbEntity
  8
Calque_1
 62
1
100
AcDbLine
 10
181.394246
 20
120.198173
 30
0.0
 11
182.669567
 21
120.934480
 31
0.0
  0
SPLINE
  5
151
100
AcDbEntity
  8
Calque_1
 62
1
100
AcDbSpline
 70
8
 71
3
 72
8
 73
4
 74
0
 40
0
 40
0
 40
0
 40
0
 40
1
 40
1
 40
1
 40
1
 10
182.669567
 20
120.934480
 30
0.0
 10
183.393624
 20
121.352514
 30
0.0
 10
183.640026
 20
122.271897
 30
0.0
 10
183.222035
 20
122.995879
 30
0.0
  0
LINE
  5
152
100
AcDbEntity
  8
Calque_1
 62
1
100
AcDbLine
 10
183.222035
 20
122.995879
 30
0.0
 11
175.106864
 21
137.051768
 31
0.0
  0
SPLINE
  5
153
100
AcDbEntity
  8
Calque_1
 62
1
100
AcDbSpline
 70
8
 71
3
 72
8
 73
4
 74
0
 40
0
 40
0
 40
0
 40
0
 40
1
 40
1
 40
1
 40
1
 10
175.106864
 20
137.051768
 30
0.0
 10
174.688875
 20
137.775745
 30
0.0
 10
173.769432
 20
138.022103
 30
0.0
 10
173.045405
 20
137.604016
 30
0.0
  0
LINE
  5
154
100
AcDbEntity
  8
Calque_1
 62
1
100
AcDbLine
 10
173.045405
 20
137.604016
 30
0.0
 11
171.788652
 21
136.854352
 31
0.0
  0
LINE
  5
155
100
AcDbEntity
  8
Calque_1
 62
1
100
AcDbLine
 10
171.788652
 20
136.854352
 30
0.0
 11
162.195622
 21
120.195085
 31
0.0
  0
LINE
  5
156
100
AcDbEntity
  8
Calque_1
 62
1
100
AcDbLine
 10
162.195622
 20
120.195085
 30
0.0
 11
160.906135
 21
120.906737
 31
0.0
  0
SPLINE
  5
157
100
AcDbEntity
  8
Calque_1
 62
1
100
AcDbSpline
 70
8
 71
3
 72
8
 73
4
 74
0
 40
0
 40
0
 40
0
 40
0
 40
1
 40
1
 40
1
 40
1
 10
160.906135
 20
120.906737
 30
0.0
 10
160.174186
 20
121.310689
 30
0.0
 10
159.262672
 20
121.078311
 30
0.0
 10
158.844617
 20
120.354299
 30
0.0
  0
LINE
  5
158
100
AcDbEntity
  8
Calque_1
 62
1
100
AcDbLine
 10
158.844617
 20
120.354299
 30
0.0
 11
150.728101
 21
106.297633
 31
0.0
  0
SPLINE
  5
159
100
AcDbEntity
  8
Calque_1
 62
1
100
AcDbSpline
 70
8
 71
3
 72
8
 73
4
 74
0
 40
0
 40
0
 40
0
 40
0
 40
1
 40
1
 40
1
 40
1
 10
150.728101
 20
106.297633
 30
0.0
 10
150.310041
 20
105.573618
 30
0.0
 10
150.556320
 20
104.654203
 30
0.0
 10
151.280380
 20
104.236280
 30
0.0
  0
LINE
  5
15a
100
AcDbEntity
  8
Calque_1
 62
1
100
AcDbLine
 10
151.280380
 20
104.236280
 30
0.0
 11
152.541507
 21
103.475617
 31
0.0
  0
LINE
  5
15b
100
AcDbEntity
  8
Calque_1
 62
1
100
AcDbLine
 10
152.541507
 20
103.475617
 30
0.0
 11
142.944025
 21
86.854134
 31
0.0
  0
LINE
  5
15c
100
AcDbEntity
  8
Calque_1
 62
1
100
AcDbLine
 10
142.944025
 20
86.854134
 30
0.0
 11
141.654622
 21
87.565828
 31
0.0
  0
SPLINE
  5
15d
100
AcDbEntity
  8
Calque_1
 62
1
100
AcDbSpline
 70
8
 71
3
 72
8
 73
4
 74
0
 40
0
 40
0
 40
0
 40
0
 40
1
 40
1
 40
1
 40
1
 10
141.654622
 20
87.565828
 30
0.0
 10
140.922695
 20
87.969818
 30
0.0
 10
140.011166
 20
87.737412
 30
0.0
 10
139.593104
 20
87.013390
 30
0.0
  0
LINE
  5
15e
100
AcDbEntity
  8
Calque_1
 62
1
100
AcDbLine
 10
139.593104
 20
87.013390
 30
0.0
 11
131.476588
 21
72.956724
 31
0.0
  0
SPLINE
  5
15f
100
AcDbEntity
  8
Calque_1
 62
1
100
AcDbSpline
 70
8
 71
3
 72
8
 73
4
 74
0
 40
0
 40
0
 40
0
 40
0
 40
1
 40
1
 40
1
 40
1
 10
131.476588
 20
72.956724
 30
0.0
 10
131.058528
 20
72.232709
 30
0.0
 10
131.323579
 20
71.344230
 30
0.0
 10
132.028866
 20
70.895371
 30
0.0
  0
LINE
  5
160
100
AcDbEntity
  8
Calque_1
 62
1
100
AcDbLine
 10
132.028866
 20
70.895371
 30
0.0
 11
133.257344
 21
70.169043
 31
0.0
  0
LINE
  5
161
100
AcDbEntity
  8
Calque_1
 62
1
100
AcDbLine
 10
133.257344
 20
70.169043
 30
0.0
 11
152.479228
 21
70.169568
 31
0.0
  0
LINE
  5
162
100
AcDbEntity
  8
Calque_1
 62
1
100
AcDbLine
 10
152.479228
 20
70.169568
 30
0.0
 11
152.507186
 21
68.697328
 31
0.0
  0
SPLINE
  5
163
100
AcDbEntity
  8
Calque_1
 62
1
100
AcDbSpline
 70
8
 71
3
 72
8
 73
4
 74
0
 40
0
 40
0
 40
0
 40
0
 40
1
 40
1
 40
1
 40
1
 10
152.507186
 20
68.697328
 30
0.0
 10
152.523057
 20
67.861465
 30
0.0
 10
153.180180
 20
67.188166
 30
0.0
 10
154.016227
 20
67.188216
 30
0.0
  0
LINE
  5
164
100
AcDbEntity
  8
Calque_1
 62
1
100
AcDbLine
 10
154.016227
 20
67.188216
 30
0.0
 11
170.247918
 21
67.189140
 31
0.0
  0
SPLINE
  5
165
100
AcDbEntity
  8
Calque_1
 62
1
100
AcDbSpline
 70
8
 71
3
 72
8
 73
4
 74
0
 40
0
 40
0
 40
0
 40
0
 40
1
 40
1
 40
1
 40
1
 10
170.247918
 20
67.189140
 30
0.0
 10
171.083973
 20
67.189188
 30
0.0
 10
171.757086
 20
67.862235
 30
0.0
 10
171.757105
 20
68.698243
 30
0.0
  0
LINE
  5
166
100
AcDbEntity
  8
Calque_1
 62
1
100
AcDbLine
 10
171.757105
 20
68.698243
 30
0.0
 11
171.785487
 21
70.170671
 31
0.0
  0
LINE
  5
167
100
AcDbEntity
  8
Calque_1
 62
1
100
AcDbLine
 10
171.785487
 20
70.170671
 30
0.0
 11
191.007077
 21
70.171616
 31
0.0
  0
LINE
  5
168
100
AcDbEntity
  8
Calque_1
 62
1
100
AcDbLine
 10
191.007077
 20
70.171616
 30
0.0
 11
191.007022
 21
68.699163
 31
0.0
  0
SPLINE
  5
169
100
AcDbEntity
  8
Calque_1
 62
1
100
AcDbSpline
 70
8
 71
3
 72
8
 73
4
 74
0
 40
0
 40
0
 40
0
 40
0
 40
1
 40
1
 40
1
 40
1
 10
191.007022
 20
68.699163
 30
0.0
 10
191.006993
 20
67.863150
 30
0.0
 10
191.680016
 20
67.190166
 30
0.0
 10
192.516064
 20
67.190204
 30
0.0
  0
LINE
  5
16a
100
AcDbEntity
  8
Calque_1
 62
1
100
AcDbLine
 10
192.516064
 20
67.190204
 30
0.0
 11
208.747752
 21
67.190980
 31
0.0
  0
SPLINE
  5
16b
100
AcDbEntity
  8
Calque_1
 62
1
100
AcDbSpline
 70
8
 71
3
 72
8
 73
4
 74
0
 40
0
 40
0
 40
0
 40
0
 40
1
 40
1
 40
1
 40
1
 10
208.747752
 20
67.190980
 30
0.0
 10
209.583805
 20
67.191021
 30
0.0
 10
210.254077
 20
67.864081
 30
0.0
 10
210.256939
 20
68.700083
 30
0.0
  0
LINE
  5
16c
100
AcDbEntity
  8
Calque_1
 62
1
100
AcDbLine
 10
210.256939
 20
68.700083
 30
0.0
 11
210.262019
 21
70.180987
 31
0.0
  0
LINE
  5
16d
100
AcDbEntity
  8
Calque_1
 62
1
100
AcDbLine
 10
210.262019
 20
70.180987
 30
0.0
 11
200.656749
 21
86.834706
 31
0.0
  0
LINE
  5
16e
100
AcDbEntity
  8
Calque_1
 62
1
100
AcDbLine
 10
200.656749
 20
86.834706
 30
0.0
 11
201.917886
 21
87.595391
 31
0.0
  0
SPLINE
  5
16f
100
AcDbEntity
  8
Calque_1
 62
1
100
AcDbSpline
 70
8
 71
3
 72
8
 73
4
 74
0
 40
0
 40
0
 40
0
 40
0
 40
1
 40
1
 40
1
 40
1
 10
201.917886
 20
87.595391
 30
0.0
 10
202.633799
 20
88.027225
 30
0.0
 10
202.888346
 20
88.932808
 30
0.0
 10
202.470355
 20
89.656790
 30
0.0
  0
LINE
  5
170
100
AcDbEntity
  8
Calque_1
 62
1
100
AcDbLine
 10
202.470355
 20
89.656790
 30
0.0
 11
194.355183
 21
103.712680
 31
0.0
  0
SPLINE
  5
171
100
AcDbEntity
  8
Calque_1
 62
1
100
AcDbSpline
 70
8
 71
3
 72
8
 73
4
 74
0
 40
0
 40
0
 40
0
 40
0
 40
1
 40
1
 40
1
 40
1
 10
194.355183
 20
103.712680
 30
0.0
 10
193.937195
 20
104.436657
 30
0.0
 10
193.017801
 20
104.682929
 30
0.0
 10
192.293725
 20
104.264928
 30
0.0
  0
LINE
  5
172
100
AcDbEntity
  8
Calque_1
 62
1
100
AcDbLine
 10
192.293725
 20
104.264928
 30
0.0
 11
191.004295
 21
103.553169
 31
0.0
  0
LINE
  5
173
100
AcDbEntity
  8
Calque_1
 62
1
100
AcDbLine
 10
191.004295
 20
103.553169
 30
0.0
 11
181.408501
 21
120.173671
 31
0.0
  0
LINE
  5
174
100
AcDbEntity
  8
Calque_1
 62
7
100
AcDbLine
 10
171.757163
 20
70.170690
 30
0.0
 11
171.761480
 21
92.406170
 31
0.0
  0
LINE
  5
175
100
AcDbEntity
  8
Calque_1
 62
7
100
AcDbLine
 10
152.566805
 20
103.497313
 30
0.0
 11
171.735902
 21
92.450473
 31
0.0
  0
LINE
  5
176
100
AcDbEntity
  8
Calque_1
 62
7
100
AcDbLine
 10
191.000773
 20
103.559137
 30
0.0
 11
171.832252
 21
92.451636
 31
0.0
  0
LINE
  5
177
100
AcDbEntity
  8
Calque_1
 62
7
100
AcDbLine
 10
95.861762
 20
130.122046
 30
0.0
 11
102.088648
 21
130.122046
 31
0.0
  0
SPLINE
  5
178
100
AcDbEntity
  8
Calque_1
 62
7
100
AcDbSpline
 70
8
 71
3
 72
8
 73
4
 74
0
 40
0
 40
0
 40
0
 40
0
 40
1
 40
1
 40
1
 40
1
 10
102.088648
 20
130.122046
 30
0.0
 10
102.275101
 20
130.122046
 30
0.0
 10
102.425204
 20
129.971941
 30
0.0
 10
102.425204
 20
129.785488
 30
0.0
  0
LINE
  5
179
100
AcDbEntity
  8
Calque_1
 62
7
100
AcDbLine
 10
102.425204
 20
129.785488
 30
0.0
 11
102.425204
 21
123.558601
 31
0.0
  0
SPLINE
  5
17a
100
AcDbEntity
  8
Calque_1
 62
7
100
AcDbSpline
 70
8
 71
3
 72
8
 73
4
 74
0
 40
0
 40
0
 40
0
 40
0
 40
1
 40
1
 40
1
 40
1
 10
102.425204
 20
123.558601
 30
0.0
 10
102.425204
 20
123.372149
 30
0.0
 10
102.275101
 20
123.222046
 30
0.0
 10
102.088648
 20
123.222046
 30
0.0
  0
LINE
  5
17b
100
AcDbEntity
  8
Calque_1
 62
7
100
AcDbLine
 10
102.088648
 20
123.222046
 30
0.0
 11
95.861762
 21
123.222046
 31
0.0
  0
SPLINE
  5
17c
100
AcDbEntity
  8
Calque_1
 62
7
100
AcDbSpline
 70
8
 71
3
 72
8
 73
4
 74
0
 40
0
 40
0
 40
0
 40
0
 40
1
 40
1
 40
1
 40
1
 10
95.861762
 20
123.222046
 30
0.0
 10
95.675309
 20
123.222046
 30
0.0
 10
95.525203
 20
123.372149
 30
0.0
 10
95.525203
 20
123.558601
 30
0.0
  0
LINE
  5
17d
100
AcDbEntity
  8
Calque_1
 62
7
100
AcDbLine
 10
95.525203
 20
123.558601
 30
0.0
 11
95.525203
 21
129.785488
 31
0.0
  0
SPLINE
  5
17e
100
AcDbEntity
  8
Calque_1
 62
7
100
AcDbSpline
 70
8
 71
3
 72
8
 73
4
 74
0
 40
0
 40
0
 40
0
 40
0
 40
1
 40
1
 40
1
 40
1
 10
95.525203
 20
129.785488
 30
0.0
 10
95.525203
 20
129.971941
 30
0.0
 10
95.675309
 20
130.122046
 30
0.0
 10
95.861762
 20
130.122046
 30
0.0
  0
LINE
  5
17f
100
AcDbEntity
  8
Calque_1
 62
7
100
AcDbLine
 10
95.861762
 20
130.122046
 30
0.0
 11
95.861762
 21
130.122046
 31
0.0
  0
SPLINE
  5
180
100
AcDbEntity
  8
Calque_1
 62
7
100
AcDbSpline
 70
8
 71
3
 72
8
 73
4
 74
0
 40
0
 40
0
 40
0
 40
0
 40
1
 40
1
 40
1
 40
1
 10
150.162980
 20
126.672046
 30
0.0
 10
150.162980
 20
125.757049
 30
0.0
 10
149.799499
 20
124.879528
 30
0.0
 10
149.152498
 20
124.232527
 30
0.0
  0
SPLINE
  5
181
100
AcDbEntity
  8
Calque_1
 62
7
100
AcDbSpline
 70
8
 71
3
 72
8
 73
4
 74
0
 40
0
 40
0
 40
0
 40
0
 40
1
 40
1
 40
1
 40
1
 10
149.152498
 20
124.232527
 30
0.0
 10
148.505498
 20
123.585527
 30
0.0
 10
147.627976
 20
123.222046
 30
0.0
 10
146.712980
 20
123.222046
 30
0.0
  0
SPLINE
  5
182
100
AcDbEntity
  8
Calque_1
 62
7
100
AcDbSpline
 70
8
 71
3
 72
8
 73
4
 74
0
 40
0
 40
0
 40
0
 40
0
 40
1
 40
1
 40
1
 40
1
 10
146.712980
 20
123.222046
 30
0.0
 10
145.797983
 20
123.222046
 30
0.0
 10
144.920461
 20
123.585527
 30
0.0
 10
144.273461
 20
124.232527
 30
0.0
  0
SPLINE
  5
183
100
AcDbEntity
  8
Calque_1
 62
7
100
AcDbSpline
 70
8
 71
3
 72
8
 73
4
 74
0
 40
0
 40
0
 40
0
 40
0
 40
1
 40
1
 40
1
 40
1
 10
144.273461
 20
124.232527
 30
0.0
 10
143.626460
 20
124.879528
 30
0.0
 10
143.262979
 20
125.757049
 30
0.0
 10
143.262979
 20
126.672046
 30
0.0
  0
SPLINE
  5
184
100
AcDbEntity
  8
Calque_1
 62
7
100
AcDbSpline
 70
8
 71
3
 72
8
 73
4
 74
0
 40
0
 40
0
 40
0
 40
0
 40
1
 40
1
 40
1
 40
1
 10
143.262979
 20
126.672046
 30
0.0
 10
143.262979
 20
127.587043
 30
0.0
 10
143.626460
 20
128.464564
 30
0.0
 10
144.273461
 20
129.111565
 30
0.0
  0
SPLINE
  5
185
100
AcDbEntity
  8
Calque_1
 62
7
100
AcDbSpline
 70
8
 71
3
 72
8
 73
4
 74
0
 40
0
 40
0
 40
0
 40
0
 40
1
 40
1
 40
1
 40
1
 10
144.273461
 20
129.111565
 30
0.0
 10
144.920461
 20
129.758565
 30
0.0
 10
145.797983
 20
130.122046
 30
0.0
 10
146.712980
 20
130.122046
 30
0.0
  0
SPLINE
  5
186
100
AcDbEntity
  8
Calque_1
 62
7
100
AcDbSpline
 70
8
 71
3
 72
8
 73
4
 74
0
 40
0
 40
0
 40
0
 40
0
 40
1
 40
1
 40
1
 40
1
 10
146.712980
 20
130.122046
 30
0.0
 10
147.627976
 20
130.122046
 30
0.0
 10
148.505498
 20
129.758565
 30
0.0
 10
149.152498
 20
129.111565
 30
0.0
  0
SPLINE
  5
187
100
AcDbEntity
  8
Calque_1
 62
7
100
AcDbSpline
 70
8
 71
3
 72
8
 73
4
 74
0
 40
0
 40
0
 40
0
 40
0
 40
1
 40
1
 40
1
 40
1
 10
149.152498
 20
129.111565
 30
0.0
 10
149.799499
 20
128.464564
 30
0.0
 10
150.162980
 20
127.587043
 30
0.0
 10
150.162980
 20
126.672046
 30
0.0
  0
LINE
  5
188
100
AcDbEntity
  8
Calque_1
 62
7
100
AcDbLine
 10
150.162980
 20
126.672046
 30
0.0
 11
150.162980
 21
126.672046
 31
0.0
  0
LINE
  5
189
100
AcDbEntity
  8
Calque_1
 62
7
100
AcDbLine
 10
122.844092
 20
81.416316
 30
0.0
 11
124.800792
 21
84.805418
 31
0.0
  0
LINE
  5
18a
100
AcDbEntity
  8
Calque_1
 62
7
100
AcDbLine
 10
124.800792
 20
84.805418
 30
0.0
 11
126.757489
 21
88.194520
 31
0.0
  0
LINE
  5
18b
100
AcDbEntity
  8
Calque_1
 62
7
100
AcDbLine
 10
126.757489
 20
88.194520
 30
0.0
 11
122.844092
 21
88.194517
 31
0.0
  0
LINE
  5
18c
100
AcDbEntity
  8
Calque_1
 62
7
100
AcDbLine
 10
122.844092
 20
88.194517
 30
0.0
 11
118.930694
 21
88.194517
 31
0.0
  0
LINE
  5
18d
100
AcDbEntity
  8
Calque_1
 62
7
100
AcDbLine
 10
118.930694
 20
88.194517
 30
0.0
 11
120.887394
 21
84.805418
 31
0.0
  0
LINE
  5
18e
100
AcDbEntity
  8
Calque_1
 62
7
100
AcDbLine
 10
120.887394
 20
84.805418
 30
0.0
 11
122.844092
 21
81.416316
 31
0.0
  0
LINE
  5
18f
100
AcDbEntity
  8
Calque_1
 62
1
100
AcDbLine
 10
113.233683
 20
84.797654
 30
0.0
 11
111.958363
 21
84.061347
 31
0.0
  0
SPLINE
  5
190
100
AcDbEntity
  8
Calque_1
 62
1
100
AcDbSpline
 70
8
 71
3
 72
8
 73
4
 74
0
 40
0
 40
0
 40
0
 40
0
 40
1
 40
1
 40
1
 40
1
 10
111.958363
 20
84.061347
 30
0.0
 10
111.234305
 20
83.643311
 30
0.0
 10
110.987902
 20
82.723930
 30
0.0
 10
111.405896
 20
81.999948
 30
0.0
  0
LINE
  5
191
100
AcDbEntity
  8
Calque_1
 62
1
100
AcDbLine
 10
111.405896
 20
81.999948
 30
0.0
 11
119.521066
 21
67.944060
 31
0.0
  0
SPLINE
  5
192
100
AcDbEntity
  8
Calque_1
 62
1
100
AcDbSpline
 70
8
 71
3
 72
8
 73
4
 74
0
 40
0
 40
0
 40
0
 40
0
 40
1
 40
1
 40
1
 40
1
 10
119.521066
 20
67.944060
 30
0.0
 10
119.939054
 20
67.220081
 30
0.0
 10
120.858497
 20
66.973723
 30
0.0
 10
121.582524
 20
67.391810
 30
0.0
  0
LINE
  5
193
100
AcDbEntity
  8
Calque_1
 62
1
100
AcDbLine
 10
121.582524
 20
67.391810
 30
0.0
 11
122.839280
 21
68.141474
 31
0.0
  0
LINE
  5
194
100
AcDbEntity
  8
Calque_1
 62
1
100
AcDbLine
 10
122.839280
 20
68.141474
 30
0.0
 11
132.432306
 21
84.800741
 31
0.0
  0
LINE
  5
195
100
AcDbEntity
  8
Calque_1
 62
1
100
AcDbLine
 10
132.432306
 20
84.800741
 30
0.0
 11
133.721794
 21
84.089090
 31
0.0
  0
SPLINE
  5
196
100
AcDbEntity
  8
Calque_1
 62
1
100
AcDbSpline
 70
8
 71
3
 72
8
 73
4
 74
0
 40
0
 40
0
 40
0
 40
0
 40
1
 40
1
 40
1
 40
1
 10
133.721794
 20
84.089090
 30
0.0
 10
134.453743
 20
83.685137
 30
0.0
 10
135.365259
 20
83.917516
 30
0.0
 10
135.783312
 20
84.641529
 30
0.0
  0
LINE
  5
197
100
AcDbEntity
  8
Calque_1
 62
1
100
AcDbLine
 10
135.783312
 20
84.641529
 30
0.0
 11
143.899828
 21
98.698193
 31
0.0
  0
SPLINE
  5
198
100
AcDbEntity
  8
Calque_1
 62
1
100
AcDbSpline
 70
8
 71
3
 72
8
 73
4
 74
0
 40
0
 40
0
 40
0
 40
0
 40
1
 40
1
 40
1
 40
1
 10
143.899828
 20
98.698193
 30
0.0
 10
144.317889
 20
99.422209
 30
0.0
 10
144.071608
 20
100.341624
 30
0.0
 10
143.347550
 20
100.759547
 30
0.0
  0
LINE
  5
199
100
AcDbEntity
  8
Calque_1
 62
1
100
AcDbLine
 10
143.347550
 20
100.759547
 30
0.0
 11
142.086423
 21
101.520210
 31
0.0
  0
LINE
  5
19a
100
AcDbEntity
  8
Calque_1
 62
1
100
AcDbLine
 10
142.086423
 20
101.520210
 30
0.0
 11
151.683903
 21
118.141693
 31
0.0
  0
LINE
  5
19b
100
AcDbEntity
  8
Calque_1
 62
1
100
AcDbLine
 10
151.683903
 20
118.141693
 30
0.0
 11
152.973309
 21
117.429999
 31
0.0
  0
SPLINE
  5
19c
100
AcDbEntity
  8
Calque_1
 62
1
100
AcDbSpline
 70
8
 71
3
 72
8
 73
4
 74
0
 40
0
 40
0
 40
0
 40
0
 40
1
 40
1
 40
1
 40
1
 10
152.973309
 20
117.429999
 30
0.0
 10
153.705235
 20
117.026009
 30
0.0
 10
154.616765
 20
117.258414
 30
0.0
 10
155.034827
 20
117.982438
 30
0.0
  0
LINE
  5
19d
100
AcDbEntity
  8
Calque_1
 62
1
100
AcDbLine
 10
155.034827
 20
117.982438
 30
0.0
 11
163.151343
 21
132.039103
 31
0.0
  0
SPLINE
  5
19e
100
AcDbEntity
  8
Calque_1
 62
1
100
AcDbSpline
 70
8
 71
3
 72
8
 73
4
 74
0
 40
0
 40
0
 40
0
 40
0
 40
1
 40
1
 40
1
 40
1
 10
163.151343
 20
132.039103
 30
0.0
 10
163.569402
 20
132.763118
 30
0.0
 10
163.304350
 20
133.651596
 30
0.0
 10
162.599062
 20
134.100457
 30
0.0
  0
LINE
  5
19f
100
AcDbEntity
  8
Calque_1
 62
1
100
AcDbLine
 10
162.599062
 20
134.100457
 30
0.0
 11
161.370586
 21
134.826784
 31
0.0
  0
LINE
  5
1a0
100
AcDbEntity
  8
Calque_1
 62
1
100
AcDbLine
 10
161.370586
 20
134.826784
 30
0.0
 11
142.148701
 21
134.826219
 31
0.0
  0
LINE
  5
1a1
100
AcDbEntity
  8
Calque_1
 62
1
100
AcDbLine
 10
142.148701
 20
134.826219
 30
0.0
 11
142.120733
 21
136.298460
 31
0.0
  0
SPLINE
  5
1a2
100
AcDbEntity
  8
Calque_1
 62
1
100
AcDbSpline
 70
8
 71
3
 72
8
 73
4
 74
0
 40
0
 40
0
 40
0
 40
0
 40
1
 40
1
 40
1
 40
1
 10
142.120733
 20
136.298460
 30
0.0
 10
142.104872
 20
137.134323
 30
0.0
 10
141.447740
 20
137.807620
 30
0.0
 10
140.611691
 20
137.807572
 30
0.0
  0
LINE
  5
1a3
100
AcDbEntity
  8
Calque_1
 62
1
100
AcDbLine
 10
140.611691
 20
137.807572
 30
0.0
 11
124.380001
 21
137.806726
 31
0.0
  0
SPLINE
  5
1a4
100
AcDbEntity
  8
Calque_1
 62
1
100
AcDbSpline
 70
8
 71
3
 72
8
 73
4
 74
0
 40
0
 40
0
 40
0
 40
0
 40
1
 40
1
 40
1
 40
1
 10
124.380001
 20
137.806726
 30
0.0
 10
123.543946
 20
137.806678
 30
0.0
 10
122.870832
 20
137.133631
 30
0.0
 10
122.870812
 20
136.297624
 30
0.0
  0
LINE
  5
1a5
100
AcDbEntity
  8
Calque_1
 62
1
100
AcDbLine
 10
122.870812
 20
136.297624
 30
0.0
 11
122.842432
 21
134.825195
 31
0.0
  0
LINE
  5
1a6
100
AcDbEntity
  8
Calque_1
 62
1
100
AcDbLine
 10
122.842432
 20
134.825195
 30
0.0
 11
103.620841
 21
134.824348
 31
0.0
  0
LINE
  5
1a7
100
AcDbEntity
  8
Calque_1
 62
1
100
AcDbLine
 10
103.620841
 20
134.824348
 30
0.0
 11
103.620897
 21
136.296800
 31
0.0
  0
SPLINE
  5
1a8
100
AcDbEntity
  8
Calque_1
 62
1
100
AcDbSpline
 70
8
 71
3
 72
8
 73
4
 74
0
 40
0
 40
0
 40
0
 40
0
 40
1
 40
1
 40
1
 40
1
 10
103.620897
 20
136.296800
 30
0.0
 10
103.620926
 20
137.132813
 30
0.0
 10
102.947902
 20
137.805797
 30
0.0
 10
102.111855
 20
137.805758
 30
0.0
  0
LINE
  5
1a9
100
AcDbEntity
  8
Calque_1
 62
1
100
AcDbLine
 10
102.111855
 20
137.805758
 30
0.0
 11
85.880166
 21
137.804911
 31
0.0
  0
SPLINE
  5
1aa
100
AcDbEntity
  8
Calque_1
 62
1
100
AcDbSpline
 70
8
 71
3
 72
8
 73
4
 74
0
 40
0
 40
0
 40
0
 40
0
 40
1
 40
1
 40
1
 40
1
 10
85.880166
 20
137.804911
 30
0.0
 10
85.044113
 20
137.804872
 30
0.0
 10
84.373841
 20
137.131811
 30
0.0
 10
84.370980
 20
136.295810
 30
0.0
  0
LINE
  5
1ab
100
AcDbEntity
  8
Calque_1
 62
1
100
AcDbLine
 10
84.370980
 20
136.295810
 30
0.0
 11
84.365900
 21
134.814905
 31
0.0
  0
LINE
  5
1ac
100
AcDbEntity
  8
Calque_1
 62
1
100
AcDbLine
 10
84.365900
 20
134.814905
 30
0.0
 11
93.971169
 21
118.161186
 31
0.0
  0
LINE
  5
1ad
100
AcDbEntity
  8
Calque_1
 62
1
100
AcDbLine
 10
93.971169
 20
118.161186
 30
0.0
 11
92.710031
 21
117.400501
 31
0.0
  0
SPLINE
  5
1ae
100
AcDbEntity
  8
Calque_1
 62
1
100
AcDbSpline
 70
8
 71
3
 72
8
 73
4
 74
0
 40
0
 40
0
 40
0
 40
0
 40
1
 40
1
 40
1
 40
1
 10
92.710031
 20
117.400501
 30
0.0
 10
91.994121
 20
116.968667
 30
0.0
 10
91.739573
 20
116.063084
 30
0.0
 10
92.157564
 20
115.339102
 30
0.0
  0
LINE
  5
1af
100
AcDbEntity
  8
Calque_1
 62
1
100
AcDbLine
 10
92.157564
 20
115.339102
 30
0.0
 11
100.272737
 21
101.283214
 31
0.0
  0
SPLINE
  5
1b0
100
AcDbEntity
  8
Calque_1
 62
1
100
AcDbSpline
 70
8
 71
3
 72
8
 73
4
 74
0
 40
0
 40
0
 40
0
 40
0
 40
1
 40
1
 40
1
 40
1
 10
100.272737
 20
101.283214
 30
0.0
 10
100.690725
 20
100.559234
 30
0.0
 10
101.610118
 20
100.312962
 30
0.0
 10
102.334193
 20
100.730964
 30
0.0
  0
LINE
  5
1b1
100
AcDbEntity
  8
Calque_1
 62
1
100
AcDbLine
 10
102.334193
 20
100.730964
 30
0.0
 11
103.623624
 21
101.442723
 31
0.0
  0
LINE
  5
1b2
100
AcDbEntity
  8
Calque_1
 62
1
100
AcDbLine
 10
103.623624
 20
101.442723
 30
0.0
 11
113.219419
 21
84.822221
 31
0.0
  0
LINE
  5
1b3
100
AcDbEntity
  8
Calque_1
 62
7
100
AcDbLine
 10
122.870767
 20
134.825124
 30
0.0
 11
122.866450
 21
112.589644
 31
0.0
  0
LINE
  5
1b4
100
AcDbEntity
  8
Calque_1
 62
7
100
AcDbLine
 10
142.061125
 20
101.498501
 30
0.0
 11
122.892028
 21
112.545341
 31
0.0
  0
LINE
  5
1b5
100
AcDbEntity
  8
Calque_1
 62
7
100
AcDbLine
 10
103.627157
 20
101.436676
 30
0.0
 11
122.795678
 21
112.544177
 31
0.0
  0
LINE
  5
1b6
100
AcDbEntity
  8
Calque_1
 62
7
100
AcDbLine
 10
217.274278
 20
88.209729
 30
0.0
 11
223.960845
 21
81.284354
 31
0.0
  0
LINE
  5
1b7
100
AcDbEntity
  8
Calque_1
 62
7
100
AcDbLine
 10
223.960845
 20
88.209729
 30
0.0
 11
217.274278
 21
81.284354
 31
0.0
  0
LINE
  5
1b8
100
AcDbEntity
  8
Calque_1
 62
7
100
AcDbLine
 10
193.543245
 20
130.121990
 30
0.0
 11
199.770131
 21
130.121990
 31
0.0
  0
SPLINE
  5
1b9
100
AcDbEntity
  8
Calque_1
 62
7
100
AcDbSpline
 70
8
 71
3
 72
8
 73
4
 74
0
 40
0
 40
0
 40
0
 40
0
 40
1
 40
1
 40
1
 40
1
 10
199.770131
 20
130.121990
 30
0.0
 10
199.956584
 20
130.121990
 30
0.0
 10
200.106689
 20
129.971884
 30
0.0
 10
200.106689
 20
129.785431
 30
0.0
  0
LINE
  5
1ba
100
AcDbEntity
  8
Calque_1
 62
7
100
AcDbLine
 10
200.106689
 20
129.785431
 30
0.0
 11
200.106689
 21
123.558545
 31
0.0
  0
SPLINE
  5
1bb
100
AcDbEntity
  8
Calque_1
 62
7
100
AcDbSpline
 70
8
 71
3
 72
8
 73
4
 74
0
 40
0
 40
0
 40
0
 40
0
 40
1
 40
1
 40
1
 40
1
 10
200.106689
 20
123.558545
 30
0.0
 10
200.106689
 20
123.372092
 30
0.0
 10
199.956584
 20
123.221989
 30
0.0
 10
199.770131
 20
123.221989
 30
0.0
  0
LINE
  5
1bc
100
AcDbEntity
  8
Calque_1
 62
7
100
AcDbLine
 10
199.770131
 20
123.221989
 30
0.0
 11
193.543245
 21
123.221989
 31
0.0
  0
SPLINE
  5
1bd
100
AcDbEntity
  8
Calque_1
 62
7
100
AcDbSpline
 70
8
 71
3
 72
8
 73
4
 74
0
 40
0
 40
0
 40
0
 40
0
 40
1
 40
1
 40
1
 40
1
 10
193.543245
 20
123.221989
 30
0.0
 10
193.356792
 20
123.221989
 30
0.0
 10
193.206689
 20
123.372092
 30
0.0
 10
193.206689
 20
123.558545
 30
0.0
  0
LINE
  5
1be
100
AcDbEntity
  8
Calque_1
 62
7
100
AcDbLine
 10
193.206689
 20
123.558545
 30
0.0
 11
193.206689
 21
129.785431
 31
0.0
  0
SPLINE
  5
1bf
100
AcDbEntity
  8
Calque_1
 62
7
100
AcDbSpline
 70
8
 71
3
 72
8
 73
4
 74
0
 40
0
 40
0
 40
0
 40
0
 40
1
 40
1
 40
1
 40
1
 10
193.206689
 20
129.785431
 30
0.0
 10
193.206689
 20
129.971884
 30
0.0
 10
193.356792
 20
130.121990
 30
0.0
 10
193.543245
 20
130.121990
 30
0.0
  0
LINE
  5
1c0
100
AcDbEntity
  8
Calque_1
 62
7
100
AcDbLine
 10
193.543245
 20
130.121990
 30
0.0
 11
193.543245
 21
130.121990
 31
0.0
  0
LINE
  5
1c1
100
AcDbEntity
  8
Calque_1
 62
7
100
AcDbLine
 10
244.656348
 20
123.343785
 30
0.0
 11
246.613045
 21
126.732887
 31
0.0
  0
LINE
  5
1c2
100
AcDbEntity
  8
Calque_1
 62
7
100
AcDbLine
 10
246.613045
 20
126.732887
 30
0.0
 11
248.569745
 21
130.121990
 31
0.0
  0
LINE
  5
1c3
100
AcDbEntity
  8
Calque_1
 62
7
100
AcDbLine
 10
248.569745
 20
130.121990
 30
0.0
 11
244.656348
 21
130.121990
 31
0.0
  0
LINE
  5
1c4
100
AcDbEntity
  8
Calque_1
 62
7
100
AcDbLine
 10
244.656348
 20
130.121990
 30
0.0
 11
240.742950
 21
130.121990
 31
0.0
  0
LINE
  5
1c5
100
AcDbEntity
  8
Calque_1
 62
7
100
AcDbLine
 10
240.742950
 20
130.121990
 30
0.0
 11
242.699647
 21
126.732887
 31
0.0
  0
LINE
  5
1c6
100
AcDbEntity
  8
Calque_1
 62
7
100
AcDbLine
 10
242.699647
 20
126.732887
 30
0.0
 11
244.656348
 21
123.343785
 31
0.0
  0
LINE
  5
1c7
100
AcDbEntity
  8
Calque_1
 62
1
100
AcDbLine
 10
211.007153
 20
84.797598
 30
0.0
 11
209.731832
 21
84.061291
 31
0.0
  0
SPLINE
  5
1c8
100
AcDbEntity
  8
Calque_1
 62
1
100
AcDbSpline
 70
8
 71
3
 72
8
 73
4
 74
0
 40
0
 40
0
 40
0
 40
0
 40
1
 40
1
 40
1
 40
1
 10
209.731832
 20
84.061291
 30
0.0
 10
209.007775
 20
83.643256
 30
0.0
 10
208.761373
 20
82.723874
 30
0.0
 10
209.179364
 20
81.999892
 30
0.0
  0
LINE
  5
1c9
100
AcDbEntity
  8
Calque_1
 62
1
100
AcDbLine
 10
209.179364
 20
81.999892
 30
0.0
 11
217.294536
 21
67.944002
 31
0.0
  0
SPLINE
  5
1ca
100
AcDbEntity
  8
Calque_1
 62
1
100
AcDbSpline
 70
8
 71
3
 72
8
 73
4
 74
0
 40
0
 40
0
 40
0
 40
0
 40
1
 40
1
 40
1
 40
1
 10
217.294536
 20
67.944002
 30
0.0
 10
217.712524
 20
67.220025
 30
0.0
 10
218.631967
 20
66.973667
 30
0.0
 10
219.355994
 20
67.391754
 30
0.0
  0
LINE
  5
1cb
100
AcDbEntity
  8
Calque_1
 62
1
100
AcDbLine
 10
219.355994
 20
67.391754
 30
0.0
 11
220.612748
 21
68.141418
 31
0.0
  0
LINE
  5
1cc
100
AcDbEntity
  8
Calque_1
 62
1
100
AcDbLine
 10
220.612748
 20
68.141418
 30
0.0
 11
230.205777
 21
84.800685
 31
0.0
  0
LINE
  5
1cd
100
AcDbEntity
  8
Calque_1
 62
1
100
AcDbLine
 10
230.205777
 20
84.800685
 30
0.0
 11
231.495265
 21
84.089034
 31
0.0
  0
SPLINE
  5
1ce
100
AcDbEntity
  8
Calque_1
 62
1
100
AcDbSpline
 70
8
 71
3
 72
8
 73
4
 74
0
 40
0
 40
0
 40
0
 40
0
 40
1
 40
1
 40
1
 40
1
 10
231.495265
 20
84.089034
 30
0.0
 10
232.227214
 20
83.685082
 30
0.0
 10
233.138727
 20
83.917459
 30
0.0
 10
233.556782
 20
84.641472
 30
0.0
  0
LINE
  5
1cf
100
AcDbEntity
  8
Calque_1
 62
1
100
AcDbLine
 10
233.556782
 20
84.641472
 30
0.0
 11
241.673299
 21
98.698138
 31
0.0
  0
SPLINE
  5
1d0
100
AcDbEntity
  8
Calque_1
 62
1
100
AcDbSpline
 70
8
 71
3
 72
8
 73
4
 74
0
 40
0
 40
0
 40
0
 40
0
 40
1
 40
1
 40
1
 40
1
 10
241.673299
 20
98.698138
 30
0.0
 10
242.091358
 20
99.422153
 30
0.0
 10
241.845079
 20
100.341568
 30
0.0
 10
241.121020
 20
100.759491
 30
0.0
  0
LINE
  5
1d1
100
AcDbEntity
  8
Calque_1
 62
1
100
AcDbLine
 10
241.121020
 20
100.759491
 30
0.0
 11
239.859893
 21
101.520153
 31
0.0
  0
LINE
  5
1d2
100
AcDbEntity
  8
Calque_1
 62
1
100
AcDbLine
 10
239.859893
 20
101.520153
 30
0.0
 11
249.457374
 21
118.141636
 31
0.0
  0
LINE
  5
1d3
100
AcDbEntity
  8
Calque_1
 62
1
100
AcDbLine
 10
249.457374
 20
118.141636
 30
0.0
 11
250.746778
 21
117.429943
 31
0.0
  0
SPLINE
  5
1d4
100
AcDbEntity
  8
Calque_1
 62
1
100
AcDbSpline
 70
8
 71
3
 72
8
 73
4
 74
0
 40
0
 40
0
 40
0
 40
0
 40
1
 40
1
 40
1
 40
1
 10
250.746778
 20
117.429943
 30
0.0
 10
251.478705
 20
117.025952
 30
0.0
 10
252.390234
 20
117.258358
 30
0.0
 10
252.808296
 20
117.982381
 30
0.0
  0
LINE
  5
1d5
100
AcDbEntity
  8
Calque_1
 62
1
100
AcDbLine
 10
252.808296
 20
117.982381
 30
0.0
 11
260.924812
 21
132.039047
 31
0.0
  0
SPLINE
  5
1d6
100
AcDbEntity
  8
Calque_1
 62
1
100
AcDbSpline
 70
8
 71
3
 72
8
 73
4
 74
0
 40
0
 40
0
 40
0
 40
0
 40
1
 40
1
 40
1
 40
1
 10
260.924812
 20
132.039047
 30
0.0
 10
261.342872
 20
132.763062
 30
0.0
 10
261.077821
 20
133.651541
 30
0.0
 10
260.372533
 20
134.100400
 30
0.0
  0
LINE
  5
1d7
100
AcDbEntity
  8
Calque_1
 62
1
100
AcDbLine
 10
260.372533
 20
134.100400
 30
0.0
 11
259.144055
 21
134.826727
 31
0.0
  0
LINE
  5
1d8
100
AcDbEntity
  8
Calque_1
 62
1
100
AcDbLine
 10
259.144055
 20
134.826727
 30
0.0
 11
239.922172
 21
134.826203
 31
0.0
  0
LINE
  5
1d9
100
AcDbEntity
  8
Calque_1
 62
1
100
AcDbLine
 10
239.922172
 20
134.826203
 30
0.0
 11
239.894214
 21
136.298443
 31
0.0
  0
SPLINE
  5
1da
100
AcDbEntity
  8
Calque_1
 62
1
100
AcDbSpline
 70
8
 71
3
 72
8
 73
4
 74
0
 40
0
 40
0
 40
0
 40
0
 40
1
 40
1
 40
1
 40
1
 10
239.894214
 20
136.298443
 30
0.0
 10
239.878343
 20
137.134305
 30
0.0
 10
239.221220
 20
137.807605
 30
0.0
 10
238.385173
 20
137.807555
 30
0.0
  0
LINE
  5
1db
100
AcDbEntity
  8
Calque_1
 62
1
100
AcDbLine
 10
238.385173
 20
137.807555
 30
0.0
 11
222.153481
 21
137.806631
 31
0.0
  0
SPLINE
  5
1dc
100
AcDbEntity
  8
Calque_1
 62
1
100
AcDbSpline
 70
8
 71
3
 72
8
 73
4
 74
0
 40
0
 40
0
 40
0
 40
0
 40
1
 40
1
 40
1
 40
1
 10
222.153481
 20
137.806631
 30
0.0
 10
221.317426
 20
137.806582
 30
0.0
 10
220.644314
 20
137.133536
 30
0.0
 10
220.644294
 20
136.297527
 30
0.0
  0
LINE
  5
1dd
100
AcDbEntity
  8
Calque_1
 62
1
100
AcDbLine
 10
220.644294
 20
136.297527
 30
0.0
 11
220.615913
 21
134.825099
 31
0.0
  0
LINE
  5
1de
100
AcDbEntity
  8
Calque_1
 62
1
100
AcDbLine
 10
220.615913
 20
134.825099
 30
0.0
 11
201.394322
 21
134.824155
 31
0.0
  0
LINE
  5
1df
100
AcDbEntity
  8
Calque_1
 62
1
100
AcDbLine
 10
201.394322
 20
134.824155
 30
0.0
 11
201.394377
 21
136.296607
 31
0.0
  0
SPLINE
  5
1e0
100
AcDbEntity
  8
Calque_1
 62
1
100
AcDbSpline
 70
8
 71
3
 72
8
 73
4
 74
0
 40
0
 40
0
 40
0
 40
0
 40
1
 40
1
 40
1
 40
1
 10
201.394377
 20
136.296607
 30
0.0
 10
201.394406
 20
137.132621
 30
0.0
 10
200.721383
 20
137.805605
 30
0.0
 10
199.885335
 20
137.805567
 30
0.0
  0
LINE
  5
1e1
100
AcDbEntity
  8
Calque_1
 62
1
100
AcDbLine
 10
199.885335
 20
137.805567
 30
0.0
 11
183.653647
 21
137.804790
 31
0.0
  0
SPLINE
  5
1e2
100
AcDbEntity
  8
Calque_1
 62
1
100
AcDbSpline
 70
8
 71
3
 72
8
 73
4
 74
0
 40
0
 40
0
 40
0
 40
0
 40
1
 40
1
 40
1
 40
1
 10
183.653647
 20
137.804790
 30
0.0
 10
182.817594
 20
137.804750
 30
0.0
 10
182.147322
 20
137.131689
 30
0.0
 10
182.144460
 20
136.295687
 30
0.0
  0
LINE
  5
1e3
100
AcDbEntity
  8
Calque_1
 62
1
100
AcDbLine
 10
182.144460
 20
136.295687
 30
0.0
 11
182.139381
 21
134.814783
 31
0.0
  0
LINE
  5
1e4
100
AcDbEntity
  8
Calque_1
 62
1
100
AcDbLine
 10
182.139381
 20
134.814783
 30
0.0
 11
191.744651
 21
118.161065
 31
0.0
  0
LINE
  5
1e5
100
AcDbEntity
  8
Calque_1
 62
1
100
AcDbLine
 10
191.744651
 20
118.161065
 30
0.0
 11
190.483513
 21
117.400379
 31
0.0
  0
SPLINE
  5
1e6
100
AcDbEntity
  8
Calque_1
 62
1
100
AcDbSpline
 70
8
 71
3
 72
8
 73
4
 74
0
 40
0
 40
0
 40
0
 40
0
 40
1
 40
1
 40
1
 40
1
 10
190.483513
 20
117.400379
 30
0.0
 10
189.767600
 20
116.968546
 30
0.0
 10
189.513054
 20
116.062962
 30
0.0
 10
189.931045
 20
115.338980
 30
0.0
  0
LINE
  5
1e7
100
AcDbEntity
  8
Calque_1
 62
1
100
AcDbLine
 10
189.931045
 20
115.338980
 30
0.0
 11
198.046217
 21
101.283091
 31
0.0
  0
SPLINE
  5
1e8
100
AcDbEntity
  8
Calque_1
 62
1
100
AcDbSpline
 70
8
 71
3
 72
8
 73
4
 74
0
 40
0
 40
0
 40
0
 40
0
 40
1
 40
1
 40
1
 40
1
 10
198.046217
 20
101.283091
 30
0.0
 10
198.464205
 20
100.559114
 30
0.0
 10
199.383599
 20
100.312841
 30
0.0
 10
200.107675
 20
100.730843
 30
0.0
  0
LINE
  5
1e9
100
AcDbEntity
  8
Calque_1
 62
1
100
AcDbLine
 10
200.107675
 20
100.730843
 30
0.0
 11
201.397105
 21
101.442601
 31
0.0
  0
LINE
  5
1ea
100
AcDbEntity
  8
Calque_1
 62
1
100
AcDbLine
 10
201.397105
 20
101.442601
 30
0.0
 11
210.992899
 21
84.822100
 31
0.0
  0
LINE
  5
1eb
100
AcDbEntity
  8
Calque_1
 62
7
100
AcDbLine
 10
220.644237
 20
134.825080
 30
0.0
 11
220.639919
 21
112.589601
 31
0.0
  0
LINE
  5
1ec
100
AcDbEntity
  8
Calque_1
 62
7
100
AcDbLine
 10
239.834595
 20
101.498458
 30
0.0
 11
220.665498
 21
112.545298
 31
0.0
  0
LINE
  5
1ed
100
AcDbEntity
  8
Calque_1
 62
7
100
AcDbLine
 10
201.400627
 20
101.436633
 30
0.0
 11
220.569147
 21
112.544134
 31
0.0
  0
ENDSEC
  0
SECTION
  2
OBJECTS
  0
DICTIONARY
  5
C
330
0
100
AcDbDictionary
  3
ACAD_GROUP
350
D
  3
ACAD_MLINESTYLE
350
17
  0
DICTIONARY
  5
D
330
C
100
AcDbDictionary
  0
DICTIONARY
  5
1A
330
C
100
AcDbDictionary
  0
DICTIONARY
  5
17
330
C
100
AcDbDictionary
  3
STANDARD
350
18
  0
DICTIONARY
  5
19
330
C
100
AcDbDictionary
  0
ENDSEC
  0
EOF
