  0
SECTION
  2
HEADER
  9
$ACADVER
  1
AC1014
  9
$HANDSEED
  5
FFFF
  9
$MEASUREMENT
 70
     1
  0
ENDSEC
  0
SECTION
  2
TABLES
  0
TABLE
  2
VPORT
  5
8
330
0
100
AcDbSymbolTable
 70
     4
  0
VPORT
  5
2E
330
8
100
AcDbSymbolTableRecord
100
AcDbViewportTableRecord
  2
*ACTIVE
 70
     0
 10
0.0
 20
0.0
 11
1.0
 21
1.0
 12
210.0
 22
148.5
 13
0.0
 23
0.0
 14
10.0
 24
10.0
 15
10.0
 25
10.0
 16
0.0
 26
0.0
 36
1.0
 17
0.0
 27
0.0
 37
0.0
 40
341.0
 41
1.24
 42
50.0
 43
0.0
 44
0.0
 50
0.0
 51
0.0
 71
     0
 72
   100
 73
     1
 74
     3
 75
     0
 76
     0
 77
     0
 78
     0
  0
ENDTAB
  0
TABLE
  2
LTYPE
  5
5
330
0
100
AcDbSymbolTable
 70
     1
  0
LTYPE
  5
14
330
5
100
AcDbSymbolTableRecord
100
AcDbLinetypeTableRecord
  2
BYBLOCK
 70
     0
  3

 72
    65
 73
     0
 40
0.0
  0
LTYPE
  5
15
330
5
100
AcDbSymbolTableRecord
100
AcDbLinetypeTableRecord
  2
BYLAYER
 70
     0
  3

 72
    65
 73
     0
 40
0.0
  0
LTYPE
  5
16
330
5
100
AcDbSymbolTableRecord
100
AcDbLinetypeTableRecord
  2
CONTINUOUS
 70
     0
  3
Solid line
 72
    65
 73
     0
 40
0.0
  0
ENDTAB
  0
TABLE
  2
LAYER
  5
2
100
AcDbSymbolTable
 70
2
  0
LAYER
  5
50
100
AcDbSymbolTableRecord
100
AcDbLayerTableRecord
  2
0
 70
0
  6
CONTINUOUS
  0
LAYER
  5
51
100
AcDbSymbolTableRecord
100
AcDbLayerTableRecord
  2
Calque_1
 70
0
  6
CONTINUOUS
  0
ENDTAB
  0
TABLE
  2
STYLE
  5
3
330
0
100
AcDbSymbolTable
 70
     1
  0
STYLE
  5
11
330
3
100
AcDbSymbolTableRecord
100
AcDbTextStyleTableRecord
  2
STANDARD
 70
     0
 40
0.0
 41
1.0
 50
0.0
 71
     0
 42
2.5
  3
txt
  4

  0
ENDTAB
  0
TABLE
  2
VIEW
  5
6
330
0
100
AcDbSymbolTable
 70
     0
  0
ENDTAB
  0
TABLE
  2
UCS
  5
7
330
0
100
AcDbSymbolTable
 70
     0
  0
ENDTAB
  0
TABLE
  2
APPID
  5
9
330
0
100
AcDbSymbolTable
 70
     2
  0
APPID
  5
12
330
9
100
AcDbSymbolTableRecord
100
AcDbRegAppTableRecord
  2
ACAD
 70
     0
  0
ENDTAB
  0
TABLE
  2
DIMSTYLE
  5
A
330
0
100
AcDbSymbolTable
 70
     1
  0
DIMSTYLE
105
27
330
A
100
AcDbSymbolTableRecord
100
AcDbDimStyleTableRecord
  2
ISO-25
 70
     0
  3

  4

  5

  6

  7

 40
1.0
 41
2.5
 42
0.625
 43
3.75
 44
1.25
 45
0.0
 46
0.0
 47
0.0
 48
0.0
140
2.5
141
2.5
142
0.0
143
0.03937007874016
144
1.0
145
0.0
146
1.0
147
0.625
 71
     0
 72
     0
 73
     0
 74
     0
 75
     0
 76
     0
 77
     1
 78
     8
170
     0
171
     3
172
     1
173
     0
174
     0
175
     0
176
     0
177
     0
178
     0
270
     2
271
     2
272
     2
273
     2
274
     3
340
11
275
     0
280
     0
281
     0
282
     0
283
     0
284
     8
285
     0
286
     0
287
     3
288
     0
  0
ENDTAB
  0
TABLE
  2
BLOCK_RECORD
  5
1
330
0
100
AcDbSymbolTable
 70
     1
  0
BLOCK_RECORD
  5
1F
330
1
100
AcDbSymbolTableRecord
100
AcDbBlockTableRecord
  2
*MODEL_SPACE
  0
BLOCK_RECORD
  5
1B
330
1
100
AcDbSymbolTableRecord
100
AcDbBlockTableRecord
  2
*PAPER_SPACE
  0
ENDTAB
  0
ENDSEC
  0
SECTION
  2
BLOCKS
  0
BLOCK
  5
20
330
1F
100
AcDbEntity
  8
0
100
AcDbBlockBegin
  2
*MODEL_SPACE
 70
     0
 10
0.0
 20
0.0
 30
0.0
  3
*MODEL_SPACE
  1

  0
ENDBLK
  5
21
330
1F
100
AcDbEntity
  8
0
100
AcDbBlockEnd
  0
BLOCK
  5
1C
330
1B
100
AcDbEntity
 67
     1
  8
0
100
AcDbBlockBegin
  2
*PAPER_SPACE
  1

  0
ENDBLK
  5
1D
330
1B
100
AcDbEntity
 67
     1
  8
0
100
AcDbBlockEnd
  0
ENDSEC
  0
SECTION
  2
ENTITIES
  0
LINE
  5
100
100
AcDbEntity
  8
Calque_1
 62
1
100
AcDbLine
 10
56.447139
 20
60.242976
 30
0.0
 11
57.722460
 21
60.979283
 31
0.0
  0
SPLINE
  5
101
100
AcDbEntity
  8
Calque_1
 62
1
100
AcDbSpline
 70
8
 71
3
 72
8
 73
4
 74
0
 40
0
 40
0
 40
0
 40
0
 40
1
 40
1
 40
1
 40
1
 10
57.722460
 20
60.979283
 30
0.0
 10
58.446517
 20
61.397319
 30
0.0
 10
58.692919
 20
62.316700
 30
0.0
 10
58.274928
 20
63.040682
 30
0.0
  0
LINE
  5
102
100
AcDbEntity
  8
Calque_1
 62
1
100
AcDbLine
 10
58.274928
 20
63.040682
 30
0.0
 11
50.159756
 21
77.096570
 31
0.0
  0
SPLINE
  5
103
100
AcDbEntity
  8
Calque_1
 62
1
100
AcDbSpline
 70
8
 71
3
 72
8
 73
4
 74
0
 40
0
 40
0
 40
0
 40
0
 40
1
 40
1
 40
1
 40
1
 10
50.159756
 20
77.096570
 30
0.0
 10
49.741768
 20
77.820549
 30
0.0
 10
48.822325
 20
78.066907
 30
0.0
 10
48.098298
 20
77.648820
 30
0.0
  0
LINE
  5
104
100
AcDbEntity
  8
Calque_1
 62
1
100
AcDbLine
 10
48.098298
 20
77.648820
 30
0.0
 11
46.841544
 21
76.899156
 31
0.0
  0
LINE
  5
105
100
AcDbEntity
  8
Calque_1
 62
1
100
AcDbLine
 10
46.841544
 20
76.899156
 30
0.0
 11
37.248515
 21
60.239889
 31
0.0
  0
LINE
  5
106
100
AcDbEntity
  8
Calque_1
 62
1
100
AcDbLine
 10
37.248515
 20
60.239889
 30
0.0
 11
35.959028
 21
60.951540
 31
0.0
  0
SPLINE
  5
107
100
AcDbEntity
  8
Calque_1
 62
1
100
AcDbSpline
 70
8
 71
3
 72
8
 73
4
 74
0
 40
0
 40
0
 40
0
 40
0
 40
1
 40
1
 40
1
 40
1
 10
35.959028
 20
60.951540
 30
0.0
 10
35.227079
 20
61.355493
 30
0.0
 10
34.315565
 20
61.123114
 30
0.0
 10
33.897510
 20
60.399101
 30
0.0
  0
LINE
  5
108
100
AcDbEntity
  8
Calque_1
 62
1
100
AcDbLine
 10
33.897510
 20
60.399101
 30
0.0
 11
25.780994
 21
46.342437
 31
0.0
  0
SPLINE
  5
109
100
AcDbEntity
  8
Calque_1
 62
1
100
AcDbSpline
 70
8
 71
3
 72
8
 73
4
 74
0
 40
0
 40
0
 40
0
 40
0
 40
1
 40
1
 40
1
 40
1
 10
25.780994
 20
46.342437
 30
0.0
 10
25.362934
 20
45.618421
 30
0.0
 10
25.609213
 20
44.699006
 30
0.0
 10
26.333273
 20
44.281083
 30
0.0
  0
LINE
  5
10a
100
AcDbEntity
  8
Calque_1
 62
1
100
AcDbLine
 10
26.333273
 20
44.281083
 30
0.0
 11
27.594399
 21
43.520420
 31
0.0
  0
LINE
  5
10b
100
AcDbEntity
  8
Calque_1
 62
1
100
AcDbLine
 10
27.594399
 20
43.520420
 30
0.0
 11
17.996918
 21
26.898937
 31
0.0
  0
LINE
  5
10c
100
AcDbEntity
  8
Calque_1
 62
1
100
AcDbLine
 10
17.996918
 20
26.898937
 30
0.0
 11
16.707515
 21
27.610631
 31
0.0
  0
SPLINE
  5
10d
100
AcDbEntity
  8
Calque_1
 62
1
100
AcDbSpline
 70
8
 71
3
 72
8
 73
4
 74
0
 40
0
 40
0
 40
0
 40
0
 40
1
 40
1
 40
1
 40
1
 10
16.707515
 20
27.610631
 30
0.0
 10
15.975588
 20
28.014621
 30
0.0
 10
15.064058
 20
27.782216
 30
0.0
 10
14.645997
 20
27.058192
 30
0.0
  0
LINE
  5
10e
100
AcDbEntity
  8
Calque_1
 62
1
100
AcDbLine
 10
14.645997
 20
27.058192
 30
0.0
 11
6.529479
 21
13.001527
 31
0.0
  0
SPLINE
  5
10f
100
AcDbEntity
  8
Calque_1
 62
1
100
AcDbSpline
 70
8
 71
3
 72
8
 73
4
 74
0
 40
0
 40
0
 40
0
 40
0
 40
1
 40
1
 40
1
 40
1
 10
6.529479
 20
13.001527
 30
0.0
 10
6.111421
 20
12.277512
 30
0.0
 10
6.376472
 20
11.389034
 30
0.0
 10
7.081759
 20
10.940173
 30
0.0
  0
LINE
  5
110
100
AcDbEntity
  8
Calque_1
 62
1
100
AcDbLine
 10
7.081759
 20
10.940173
 30
0.0
 11
8.310237
 21
10.213846
 31
0.0
  0
LINE
  5
111
100
AcDbEntity
  8
Calque_1
 62
1
100
AcDbLine
 10
8.310237
 20
10.213846
 30
0.0
 11
27.532121
 21
10.214411
 31
0.0
  0
LINE
  5
112
100
AcDbEntity
  8
Calque_1
 62
1
100
AcDbLine
 10
27.532121
 20
10.214411
 30
0.0
 11
27.560078
 21
8.742170
 31
0.0
  0
SPLINE
  5
113
100
AcDbEntity
  8
Calque_1
 62
1
100
AcDbSpline
 70
8
 71
3
 72
8
 73
4
 74
0
 40
0
 40
0
 40
0
 40
0
 40
1
 40
1
 40
1
 40
1
 10
27.560078
 20
8.742170
 30
0.0
 10
27.575950
 20
7.906307
 30
0.0
 10
28.233072
 20
7.233010
 30
0.0
 10
29.069119
 20
7.233058
 30
0.0
  0
LINE
  5
114
100
AcDbEntity
  8
Calque_1
 62
1
100
AcDbLine
 10
29.069119
 20
7.233058
 30
0.0
 11
45.300811
 21
7.233904
 31
0.0
  0
SPLINE
  5
115
100
AcDbEntity
  8
Calque_1
 62
1
100
AcDbSpline
 70
8
 71
3
 72
8
 73
4
 74
0
 40
0
 40
0
 40
0
 40
0
 40
1
 40
1
 40
1
 40
1
 10
45.300811
 20
7.233904
 30
0.0
 10
46.136866
 20
7.233952
 30
0.0
 10
46.809978
 20
7.906999
 30
0.0
 10
46.809998
 20
8.743006
 30
0.0
  0
LINE
  5
116
100
AcDbEntity
  8
Calque_1
 62
1
100
AcDbLine
 10
46.809998
 20
8.743006
 30
0.0
 11
46.838379
 21
10.215435
 31
0.0
  0
LINE
  5
117
100
AcDbEntity
  8
Calque_1
 62
1
100
AcDbLine
 10
46.838379
 20
10.215435
 30
0.0
 11
66.059970
 21
10.216282
 31
0.0
  0
LINE
  5
118
100
AcDbEntity
  8
Calque_1
 62
1
100
AcDbLine
 10
66.059970
 20
10.216282
 30
0.0
 11
66.059916
 21
8.743830
 31
0.0
  0
SPLINE
  5
119
100
AcDbEntity
  8
Calque_1
 62
1
100
AcDbSpline
 70
8
 71
3
 72
8
 73
4
 74
0
 40
0
 40
0
 40
0
 40
0
 40
1
 40
1
 40
1
 40
1
 10
66.059916
 20
8.743830
 30
0.0
 10
66.059885
 20
7.907817
 30
0.0
 10
66.732909
 20
7.234833
 30
0.0
 10
67.568959
 20
7.234872
 30
0.0
  0
LINE
  5
11a
100
AcDbEntity
  8
Calque_1
 62
1
100
AcDbLine
 10
67.568959
 20
7.234872
 30
0.0
 11
83.800645
 21
7.235719
 31
0.0
  0
SPLINE
  5
11b
100
AcDbEntity
  8
Calque_1
 62
1
100
AcDbSpline
 70
8
 71
3
 72
8
 73
4
 74
0
 40
0
 40
0
 40
0
 40
0
 40
1
 40
1
 40
1
 40
1
 10
83.800645
 20
7.235719
 30
0.0
 10
84.636697
 20
7.235758
 30
0.0
 10
85.306970
 20
7.908819
 30
0.0
 10
85.309831
 20
8.744820
 30
0.0
  0
LINE
  5
11c
100
AcDbEntity
  8
Calque_1
 62
1
100
AcDbLine
 10
85.309831
 20
8.744820
 30
0.0
 11
85.314911
 21
10.225725
 31
0.0
  0
LINE
  5
11d
100
AcDbEntity
  8
Calque_1
 62
1
100
AcDbLine
 10
85.314911
 20
10.225725
 30
0.0
 11
75.709642
 21
26.879444
 31
0.0
  0
LINE
  5
11e
100
AcDbEntity
  8
Calque_1
 62
1
100
AcDbLine
 10
75.709642
 20
26.879444
 30
0.0
 11
76.970780
 21
27.640129
 31
0.0
  0
SPLINE
  5
11f
100
AcDbEntity
  8
Calque_1
 62
1
100
AcDbSpline
 70
8
 71
3
 72
8
 73
4
 74
0
 40
0
 40
0
 40
0
 40
0
 40
1
 40
1
 40
1
 40
1
 10
76.970780
 20
27.640129
 30
0.0
 10
77.686693
 20
28.071963
 30
0.0
 10
77.941238
 20
28.977546
 30
0.0
 10
77.523247
 20
29.701528
 30
0.0
  0
LINE
  5
120
100
AcDbEntity
  8
Calque_1
 62
1
100
AcDbLine
 10
77.523247
 20
29.701528
 30
0.0
 11
69.408077
 21
43.757417
 31
0.0
  0
SPLINE
  5
121
100
AcDbEntity
  8
Calque_1
 62
1
100
AcDbSpline
 70
8
 71
3
 72
8
 73
4
 74
0
 40
0
 40
0
 40
0
 40
0
 40
1
 40
1
 40
1
 40
1
 10
69.408077
 20
43.757417
 30
0.0
 10
68.990089
 20
44.481396
 30
0.0
 10
68.070693
 20
44.727668
 30
0.0
 10
67.346618
 20
44.309666
 30
0.0
  0
LINE
  5
122
100
AcDbEntity
  8
Calque_1
 62
1
100
AcDbLine
 10
67.346618
 20
44.309666
 30
0.0
 11
66.057187
 21
43.597907
 31
0.0
  0
LINE
  5
123
100
AcDbEntity
  8
Calque_1
 62
1
100
AcDbLine
 10
66.057187
 20
43.597907
 30
0.0
 11
56.461393
 21
60.218409
 31
0.0
  0
LINE
  5
124
100
AcDbEntity
  8
Calque_1
 62
7
100
AcDbLine
 10
46.810056
 20
10.215506
 30
0.0
 11
46.814373
 21
32.450986
 31
0.0
  0
LINE
  5
125
100
AcDbEntity
  8
Calque_1
 62
7
100
AcDbLine
 10
27.619697
 20
43.542129
 30
0.0
 11
46.788795
 21
32.495289
 31
0.0
  0
LINE
  5
126
100
AcDbEntity
  8
Calque_1
 62
7
100
AcDbLine
 10
66.053666
 20
43.603954
 30
0.0
 11
46.885145
 21
32.496453
 31
0.0
  0
SPLINE
  5
127
100
AcDbEntity
  8
Calque_1
 62
7
100
AcDbSpline
 70
8
 71
3
 72
8
 73
4
 74
0
 40
0
 40
0
 40
0
 40
0
 40
1
 40
1
 40
1
 40
1
 10
74.558700
 20
18.368584
 30
0.0
 10
74.558700
 20
17.453587
 30
0.0
 10
74.195219
 20
16.576066
 30
0.0
 10
73.548218
 20
15.929065
 30
0.0
  0
SPLINE
  5
128
100
AcDbEntity
  8
Calque_1
 62
7
100
AcDbSpline
 70
8
 71
3
 72
8
 73
4
 74
0
 40
0
 40
0
 40
0
 40
0
 40
1
 40
1
 40
1
 40
1
 10
73.548218
 20
15.929065
 30
0.0
 10
72.901218
 20
15.282065
 30
0.0
 10
72.023697
 20
14.918584
 30
0.0
 10
71.108700
 20
14.918584
 30
0.0
  0
SPLINE
  5
129
100
AcDbEntity
  8
Calque_1
 62
7
100
AcDbSpline
 70
8
 71
3
 72
8
 73
4
 74
0
 40
0
 40
0
 40
0
 40
0
 40
1
 40
1
 40
1
 40
1
 10
71.108700
 20
14.918584
 30
0.0
 10
70.193703
 20
14.918584
 30
0.0
 10
69.316182
 20
15.282065
 30
0.0
 10
68.669181
 20
15.929065
 30
0.0
  0
SPLINE
  5
12a
100
AcDbEntity
  8
Calque_1
 62
7
100
AcDbSpline
 70
8
 71
3
 72
8
 73
4
 74
0
 40
0
 40
0
 40
0
 40
0
 40
1
 40
1
 40
1
 40
1
 10
68.669181
 20
15.929065
 30
0.0
 10
68.022181
 20
16.576066
 30
0.0
 10
67.658700
 20
17.453587
 30
0.0
 10
67.658700
 20
18.368584
 30
0.0
  0
SPLINE
  5
12b
100
AcDbEntity
  8
Calque_1
 62
7
100
AcDbSpline
 70
8
 71
3
 72
8
 73
4
 74
0
 40
0
 40
0
 40
0
 40
0
 40
1
 40
1
 40
1
 40
1
 10
67.658700
 20
18.368584
 30
0.0
 10
67.658700
 20
19.283581
 30
0.0
 10
68.022181
 20
20.161102
 30
0.0
 10
68.669181
 20
20.808103
 30
0.0
  0
SPLINE
  5
12c
100
AcDbEntity
  8
Calque_1
 62
7
100
AcDbSpline
 70
8
 71
3
 72
8
 73
4
 74
0
 40
0
 40
0
 40
0
 40
0
 40
1
 40
1
 40
1
 40
1
 10
68.669181
 20
20.808103
 30
0.0
 10
69.316182
 20
21.455103
 30
0.0
 10
70.193703
 20
21.818584
 30
0.0
 10
71.108700
 20
21.818584
 30
0.0
  0
SPLINE
  5
12d
100
AcDbEntity
  8
Calque_1
 62
7
100
AcDbSpline
 70
8
 71
3
 72
8
 73
4
 74
0
 40
0
 40
0
 40
0
 40
0
 40
1
 40
1
 40
1
 40
1
 10
71.108700
 20
21.818584
 30
0.0
 10
72.023697
 20
21.818584
 30
0.0
 10
72.901218
 20
21.455103
 30
0.0
 10
73.548218
 20
20.808103
 30
0.0
  0
SPLINE
  5
12e
100
AcDbEntity
  8
Calque_1
 62
7
100
AcDbSpline
 70
8
 71
3
 72
8
 73
4
 74
0
 40
0
 40
0
 40
0
 40
0
 40
1
 40
1
 40
1
 40
1
 10
73.548218
 20
20.808103
 30
0.0
 10
74.195219
 20
20.161102
 30
0.0
 10
74.558700
 20
19.283581
 30
0.0
 10
74.558700
 20
18.368584
 30
0.0
  0
LINE
  5
12f
100
AcDbEntity
  8
Calque_1
 62
7
100
AcDbLine
 10
74.558700
 20
18.368584
 30
0.0
 11
74.558700
 21
18.368584
 31
0.0
  0
LINE
  5
130
100
AcDbEntity
  8
Calque_1
 62
7
100
AcDbLine
 10
19.852842
 20
21.818584
 30
0.0
 11
26.079728
 21
21.818584
 31
0.0
  0
SPLINE
  5
131
100
AcDbEntity
  8
Calque_1
 62
7
100
AcDbSpline
 70
8
 71
3
 72
8
 73
4
 74
0
 40
0
 40
0
 40
0
 40
0
 40
1
 40
1
 40
1
 40
1
 10
26.079728
 20
21.818584
 30
0.0
 10
26.266181
 20
21.818584
 30
0.0
 10
26.416284
 20
21.668479
 30
0.0
 10
26.416284
 20
21.482026
 30
0.0
  0
LINE
  5
132
100
AcDbEntity
  8
Calque_1
 62
7
100
AcDbLine
 10
26.416284
 20
21.482026
 30
0.0
 11
26.416284
 21
15.255140
 31
0.0
  0
SPLINE
  5
133
100
AcDbEntity
  8
Calque_1
 62
7
100
AcDbSpline
 70
8
 71
3
 72
8
 73
4
 74
0
 40
0
 40
0
 40
0
 40
0
 40
1
 40
1
 40
1
 40
1
 10
26.416284
 20
15.255140
 30
0.0
 10
26.416284
 20
15.068689
 30
0.0
 10
26.266181
 20
14.918584
 30
0.0
 10
26.079728
 20
14.918584
 30
0.0
  0
LINE
  5
134
100
AcDbEntity
  8
Calque_1
 62
7
100
AcDbLine
 10
26.079728
 20
14.918584
 30
0.0
 11
19.852842
 21
14.918584
 31
0.0
  0
SPLINE
  5
135
100
AcDbEntity
  8
Calque_1
 62
7
100
AcDbSpline
 70
8
 71
3
 72
8
 73
4
 74
0
 40
0
 40
0
 40
0
 40
0
 40
1
 40
1
 40
1
 40
1
 10
19.852842
 20
14.918584
 30
0.0
 10
19.666389
 20
14.918584
 30
0.0
 10
19.516283
 20
15.068689
 30
0.0
 10
19.516283
 20
15.255140
 30
0.0
  0
LINE
  5
136
100
AcDbEntity
  8
Calque_1
 62
7
100
AcDbLine
 10
19.516283
 20
15.255140
 30
0.0
 11
19.516283
 21
21.482026
 31
0.0
  0
SPLINE
  5
137
100
AcDbEntity
  8
Calque_1
 62
7
100
AcDbSpline
 70
8
 71
3
 72
8
 73
4
 74
0
 40
0
 40
0
 40
0
 40
0
 40
1
 40
1
 40
1
 40
1
 10
19.516283
 20
21.482026
 30
0.0
 10
19.516283
 20
21.668479
 30
0.0
 10
19.666389
 20
21.818584
 30
0.0
 10
19.852842
 20
21.818584
 30
0.0
  0
LINE
  5
138
100
AcDbEntity
  8
Calque_1
 62
7
100
AcDbLine
 10
19.852842
 20
21.818584
 30
0.0
 11
19.852842
 21
21.818584
 31
0.0
  0
LINE
  5
139
100
AcDbEntity
  8
Calque_1
 62
7
100
AcDbLine
 10
43.493447
 20
63.756214
 30
0.0
 11
50.180014
 21
56.830839
 31
0.0
  0
LINE
  5
13a
100
AcDbEntity
  8
Calque_1
 62
7
100
AcDbLine
 10
50.180014
 20
63.756214
 30
0.0
 11
43.493447
 21
56.830839
 31
0.0
  0
LINE
  5
13b
100
AcDbEntity
  8
Calque_1
 62
1
100
AcDbLine
 10
5.049915
 20
79.950037
 30
0.0
 11
236.950007
 21
79.950037
 31
0.0
  0
LINE
  5
13c
100
AcDbEntity
  8
Calque_1
 62
1
100
AcDbLine
 10
236.950007
 20
79.950037
 30
0.0
 11
236.950007
 21
5.049942
 31
0.0
  0
LINE
  5
13d
100
AcDbEntity
  8
Calque_1
 62
1
100
AcDbLine
 10
236.950007
 20
5.049942
 30
0.0
 11
5.049915
 21
5.049942
 31
0.0
  0
LINE
  5
13e
100
AcDbEntity
  8
Calque_1
 62
1
100
AcDbLine
 10
5.049915
 20
5.049942
 30
0.0
 11
5.049915
 21
79.950037
 31
0.0
  0
LINE
  5
13f
100
AcDbEntity
  8
Calque_1
 62
7
100
AcDbLine
 10
142.395818
 20
63.756214
 30
0.0
 11
149.082385
 21
56.830839
 31
0.0
  0
LINE
  5
140
100
AcDbEntity
  8
Calque_1
 62
7
100
AcDbLine
 10
149.082385
 20
63.756214
 30
0.0
 11
142.395818
 21
56.830839
 31
0.0
  0
SPLINE
  5
141
100
AcDbEntity
  8
Calque_1
 62
7
100
AcDbSpline
 70
8
 71
3
 72
8
 73
4
 74
0
 40
0
 40
0
 40
0
 40
0
 40
1
 40
1
 40
1
 40
1
 10
124.812069
 20
18.368584
 30
0.0
 10
124.812069
 20
17.453587
 30
0.0
 10
124.448588
 20
16.576066
 30
0.0
 10
123.801588
 20
15.929065
 30
0.0
  0
SPLINE
  5
142
100
AcDbEntity
  8
Calque_1
 62
7
100
AcDbSpline
 70
8
 71
3
 72
8
 73
4
 74
0
 40
0
 40
0
 40
0
 40
0
 40
1
 40
1
 40
1
 40
1
 10
123.801588
 20
15.929065
 30
0.0
 10
123.154587
 20
15.282065
 30
0.0
 10
122.277066
 20
14.918584
 30
0.0
 10
121.362069
 20
14.918584
 30
0.0
  0
SPLINE
  5
143
100
AcDbEntity
  8
Calque_1
 62
7
100
AcDbSpline
 70
8
 71
3
 72
8
 73
4
 74
0
 40
0
 40
0
 40
0
 40
0
 40
1
 40
1
 40
1
 40
1
 10
121.362069
 20
14.918584
 30
0.0
 10
120.447072
 20
14.918584
 30
0.0
 10
119.569551
 20
15.282065
 30
0.0
 10
118.922551
 20
15.929065
 30
0.0
  0
SPLINE
  5
144
100
AcDbEntity
  8
Calque_1
 62
7
100
AcDbSpline
 70
8
 71
3
 72
8
 73
4
 74
0
 40
0
 40
0
 40
0
 40
0
 40
1
 40
1
 40
1
 40
1
 10
118.922551
 20
15.929065
 30
0.0
 10
118.275550
 20
16.576066
 30
0.0
 10
117.912069
 20
17.453587
 30
0.0
 10
117.912069
 20
18.368584
 30
0.0
  0
SPLINE
  5
145
100
AcDbEntity
  8
Calque_1
 62
7
100
AcDbSpline
 70
8
 71
3
 72
8
 73
4
 74
0
 40
0
 40
0
 40
0
 40
0
 40
1
 40
1
 40
1
 40
1
 10
117.912069
 20
18.368584
 30
0.0
 10
117.912069
 20
19.283581
 30
0.0
 10
118.275550
 20
20.161102
 30
0.0
 10
118.922551
 20
20.808103
 30
0.0
  0
SPLINE
  5
146
100
AcDbEntity
  8
Calque_1
 62
7
100
AcDbSpline
 70
8
 71
3
 72
8
 73
4
 74
0
 40
0
 40
0
 40
0
 40
0
 40
1
 40
1
 40
1
 40
1
 10
118.922551
 20
20.808103
 30
0.0
 10
119.569551
 20
21.455103
 30
0.0
 10
120.447072
 20
21.818584
 30
0.0
 10
121.362069
 20
21.818584
 30
0.0
  0
SPLINE
  5
147
100
AcDbEntity
  8
Calque_1
 62
7
100
AcDbSpline
 70
8
 71
3
 72
8
 73
4
 74
0
 40
0
 40
0
 40
0
 40
0
 40
1
 40
1
 40
1
 40
1
 10
121.362069
 20
21.818584
 30
0.0
 10
122.277066
 20
21.818584
 30
0.0
 10
123.154587
 20
21.455103
 30
0.0
 10
123.801588
 20
20.808103
 30
0.0
  0
SPLINE
  5
148
100
AcDbEntity
  8
Calque_1
 62
7
100
AcDbSpline
 70
8
 71
3
 72
8
 73
4
 74
0
 40
0
 40
0
 40
0
 40
0
 40
1
 40
1
 40
1
 40
1
 10
123.801588
 20
20.808103
 30
0.0
 10
124.448588
 20
20.161102
 30
0.0
 10
124.812069
 20
19.283581
 30
0.0
 10
124.812069
 20
18.368584
 30
0.0
  0
LINE
  5
149
100
AcDbEntity
  8
Calque_1
 62
7
100
AcDbLine
 10
124.812069
 20
18.368584
 30
0.0
 11
124.812069
 21
18.368584
 31
0.0
  0
LINE
  5
14a
100
AcDbEntity
  8
Calque_1
 62
7
100
AcDbLine
 10
170.330614
 20
21.696788
 30
0.0
 11
172.287314
 21
18.307686
 31
0.0
  0
LINE
  5
14b
100
AcDbEntity
  8
Calque_1
 62
7
100
AcDbLine
 10
172.287314
 20
18.307686
 30
0.0
 11
174.244011
 21
14.918584
 31
0.0
  0
LINE
  5
14c
100
AcDbEntity
  8
Calque_1
 62
7
100
AcDbLine
 10
174.244011
 20
14.918584
 30
0.0
 11
170.330614
 21
14.918584
 31
0.0
  0
LINE
  5
14d
100
AcDbEntity
  8
Calque_1
 62
7
100
AcDbLine
 10
170.330614
 20
14.918584
 30
0.0
 11
166.417216
 21
14.918584
 31
0.0
  0
LINE
  5
14e
100
AcDbEntity
  8
Calque_1
 62
7
100
AcDbLine
 10
166.417216
 20
14.918584
 30
0.0
 11
168.373916
 21
18.307686
 31
0.0
  0
LINE
  5
14f
100
AcDbEntity
  8
Calque_1
 62
7
100
AcDbLine
 10
168.373916
 20
18.307686
 30
0.0
 11
170.330614
 21
21.696788
 31
0.0
  0
LINE
  5
150
100
AcDbEntity
  8
Calque_1
 62
1
100
AcDbLine
 10
155.349510
 20
60.242976
 30
0.0
 11
156.624830
 21
60.979283
 31
0.0
  0
SPLINE
  5
151
100
AcDbEntity
  8
Calque_1
 62
1
100
AcDbSpline
 70
8
 71
3
 72
8
 73
4
 74
0
 40
0
 40
0
 40
0
 40
0
 40
1
 40
1
 40
1
 40
1
 10
156.624830
 20
60.979283
 30
0.0
 10
157.348888
 20
61.397317
 30
0.0
 10
157.595290
 20
62.316700
 30
0.0
 10
157.177299
 20
63.040682
 30
0.0
  0
LINE
  5
152
100
AcDbEntity
  8
Calque_1
 62
1
100
AcDbLine
 10
157.177299
 20
63.040682
 30
0.0
 11
149.062127
 21
77.096571
 31
0.0
  0
SPLINE
  5
153
100
AcDbEntity
  8
Calque_1
 62
1
100
AcDbSpline
 70
8
 71
3
 72
8
 73
4
 74
0
 40
0
 40
0
 40
0
 40
0
 40
1
 40
1
 40
1
 40
1
 10
149.062127
 20
77.096571
 30
0.0
 10
148.644138
 20
77.820548
 30
0.0
 10
147.724696
 20
78.066906
 30
0.0
 10
147.000669
 20
77.648819
 30
0.0
  0
LINE
  5
154
100
AcDbEntity
  8
Calque_1
 62
1
100
AcDbLine
 10
147.000669
 20
77.648819
 30
0.0
 11
145.743915
 21
76.899155
 31
0.0
  0
LINE
  5
155
100
AcDbEntity
  8
Calque_1
 62
1
100
AcDbLine
 10
145.743915
 20
76.899155
 30
0.0
 11
136.150886
 21
60.239888
 31
0.0
  0
LINE
  5
156
100
AcDbEntity
  8
Calque_1
 62
1
100
AcDbLine
 10
136.150886
 20
60.239888
 30
0.0
 11
134.861398
 21
60.951540
 31
0.0
  0
SPLINE
  5
157
100
AcDbEntity
  8
Calque_1
 62
1
100
AcDbSpline
 70
8
 71
3
 72
8
 73
4
 74
0
 40
0
 40
0
 40
0
 40
0
 40
1
 40
1
 40
1
 40
1
 10
134.861398
 20
60.951540
 30
0.0
 10
134.129449
 20
61.355492
 30
0.0
 10
133.217936
 20
61.123114
 30
0.0
 10
132.799881
 20
60.399102
 30
0.0
  0
LINE
  5
158
100
AcDbEntity
  8
Calque_1
 62
1
100
AcDbLine
 10
132.799881
 20
60.399102
 30
0.0
 11
124.683364
 21
46.342436
 31
0.0
  0
SPLINE
  5
159
100
AcDbEntity
  8
Calque_1
 62
1
100
AcDbSpline
 70
8
 71
3
 72
8
 73
4
 74
0
 40
0
 40
0
 40
0
 40
0
 40
1
 40
1
 40
1
 40
1
 10
124.683364
 20
46.342436
 30
0.0
 10
124.265305
 20
45.618421
 30
0.0
 10
124.511584
 20
44.699006
 30
0.0
 10
125.235643
 20
44.281083
 30
0.0
  0
LINE
  5
15a
100
AcDbEntity
  8
Calque_1
 62
1
100
AcDbLine
 10
125.235643
 20
44.281083
 30
0.0
 11
126.496770
 21
43.520420
 31
0.0
  0
LINE
  5
15b
100
AcDbEntity
  8
Calque_1
 62
1
100
AcDbLine
 10
126.496770
 20
43.520420
 30
0.0
 11
116.899289
 21
26.898937
 31
0.0
  0
LINE
  5
15c
100
AcDbEntity
  8
Calque_1
 62
1
100
AcDbLine
 10
116.899289
 20
26.898937
 30
0.0
 11
115.609885
 21
27.610631
 31
0.0
  0
SPLINE
  5
15d
100
AcDbEntity
  8
Calque_1
 62
1
100
AcDbSpline
 70
8
 71
3
 72
8
 73
4
 74
0
 40
0
 40
0
 40
0
 40
0
 40
1
 40
1
 40
1
 40
1
 10
115.609885
 20
27.610631
 30
0.0
 10
114.877958
 20
28.014621
 30
0.0
 10
113.966429
 20
27.782216
 30
0.0
 10
113.548367
 20
27.058193
 30
0.0
  0
LINE
  5
15e
100
AcDbEntity
  8
Calque_1
 62
1
100
AcDbLine
 10
113.548367
 20
27.058193
 30
0.0
 11
105.431851
 21
13.001527
 31
0.0
  0
SPLINE
  5
15f
100
AcDbEntity
  8
Calque_1
 62
1
100
AcDbSpline
 70
8
 71
3
 72
8
 73
4
 74
0
 40
0
 40
0
 40
0
 40
0
 40
1
 40
1
 40
1
 40
1
 10
105.431851
 20
13.001527
 30
0.0
 10
105.013791
 20
12.277512
 30
0.0
 10
105.278842
 20
11.389033
 30
0.0
 10
105.984130
 20
10.940174
 30
0.0
  0
LINE
  5
160
100
AcDbEntity
  8
Calque_1
 62
1
100
AcDbLine
 10
105.984130
 20
10.940174
 30
0.0
 11
107.212608
 21
10.213846
 31
0.0
  0
LINE
  5
161
100
AcDbEntity
  8
Calque_1
 62
1
100
AcDbLine
 10
107.212608
 20
10.213846
 30
0.0
 11
126.434491
 21
10.214371
 31
0.0
  0
LINE
  5
162
100
AcDbEntity
  8
Calque_1
 62
1
100
AcDbLine
 10
126.434491
 20
10.214371
 30
0.0
 11
126.462449
 21
8.742131
 31
0.0
  0
SPLINE
  5
163
100
AcDbEntity
  8
Calque_1
 62
1
100
AcDbSpline
 70
8
 71
3
 72
8
 73
4
 74
0
 40
0
 40
0
 40
0
 40
0
 40
1
 40
1
 40
1
 40
1
 10
126.462449
 20
8.742131
 30
0.0
 10
126.478320
 20
7.906268
 30
0.0
 10
127.135443
 20
7.232969
 30
0.0
 10
127.971490
 20
7.233019
 30
0.0
  0
LINE
  5
164
100
AcDbEntity
  8
Calque_1
 62
1
100
AcDbLine
 10
127.971490
 20
7.233019
 30
0.0
 11
144.203182
 21
7.233943
 31
0.0
  0
SPLINE
  5
165
100
AcDbEntity
  8
Calque_1
 62
1
100
AcDbSpline
 70
8
 71
3
 72
8
 73
4
 74
0
 40
0
 40
0
 40
0
 40
0
 40
1
 40
1
 40
1
 40
1
 10
144.203182
 20
7.233943
 30
0.0
 10
145.039237
 20
7.233991
 30
0.0
 10
145.712349
 20
7.907038
 30
0.0
 10
145.712369
 20
8.743046
 30
0.0
  0
LINE
  5
166
100
AcDbEntity
  8
Calque_1
 62
1
100
AcDbLine
 10
145.712369
 20
8.743046
 30
0.0
 11
145.740750
 21
10.215474
 31
0.0
  0
LINE
  5
167
100
AcDbEntity
  8
Calque_1
 62
1
100
AcDbLine
 10
145.740750
 20
10.215474
 30
0.0
 11
164.962340
 21
10.216419
 31
0.0
  0
LINE
  5
168
100
AcDbEntity
  8
Calque_1
 62
1
100
AcDbLine
 10
164.962340
 20
10.216419
 30
0.0
 11
164.962286
 21
8.743966
 31
0.0
  0
SPLINE
  5
169
100
AcDbEntity
  8
Calque_1
 62
1
100
AcDbSpline
 70
8
 71
3
 72
8
 73
4
 74
0
 40
0
 40
0
 40
0
 40
0
 40
1
 40
1
 40
1
 40
1
 10
164.962286
 20
8.743966
 30
0.0
 10
164.962257
 20
7.907953
 30
0.0
 10
165.635280
 20
7.234969
 30
0.0
 10
166.471328
 20
7.235007
 30
0.0
  0
LINE
  5
16a
100
AcDbEntity
  8
Calque_1
 62
1
100
AcDbLine
 10
166.471328
 20
7.235007
 30
0.0
 11
182.703016
 21
7.235783
 31
0.0
  0
SPLINE
  5
16b
100
AcDbEntity
  8
Calque_1
 62
1
100
AcDbSpline
 70
8
 71
3
 72
8
 73
4
 74
0
 40
0
 40
0
 40
0
 40
0
 40
1
 40
1
 40
1
 40
1
 10
182.703016
 20
7.235783
 30
0.0
 10
183.539069
 20
7.235824
 30
0.0
 10
184.209341
 20
7.908885
 30
0.0
 10
184.212203
 20
8.744886
 30
0.0
  0
LINE
  5
16c
100
AcDbEntity
  8
Calque_1
 62
1
100
AcDbLine
 10
184.212203
 20
8.744886
 30
0.0
 11
184.217282
 21
10.225790
 31
0.0
  0
LINE
  5
16d
100
AcDbEntity
  8
Calque_1
 62
1
100
AcDbLine
 10
184.217282
 20
10.225790
 30
0.0
 11
174.612012
 21
26.879509
 31
0.0
  0
LINE
  5
16e
100
AcDbEntity
  8
Calque_1
 62
1
100
AcDbLine
 10
174.612012
 20
26.879509
 30
0.0
 11
175.873150
 21
27.640194
 31
0.0
  0
SPLINE
  5
16f
100
AcDbEntity
  8
Calque_1
 62
1
100
AcDbSpline
 70
8
 71
3
 72
8
 73
4
 74
0
 40
0
 40
0
 40
0
 40
0
 40
1
 40
1
 40
1
 40
1
 10
175.873150
 20
27.640194
 30
0.0
 10
176.589063
 20
28.072028
 30
0.0
 10
176.843609
 20
28.977611
 30
0.0
 10
176.425618
 20
29.701593
 30
0.0
  0
LINE
  5
170
100
AcDbEntity
  8
Calque_1
 62
1
100
AcDbLine
 10
176.425618
 20
29.701593
 30
0.0
 11
168.310446
 21
43.757483
 31
0.0
  0
SPLINE
  5
171
100
AcDbEntity
  8
Calque_1
 62
1
100
AcDbSpline
 70
8
 71
3
 72
8
 73
4
 74
0
 40
0
 40
0
 40
0
 40
0
 40
1
 40
1
 40
1
 40
1
 10
168.310446
 20
43.757483
 30
0.0
 10
167.892458
 20
44.481460
 30
0.0
 10
166.973064
 20
44.727732
 30
0.0
 10
166.248988
 20
44.309731
 30
0.0
  0
LINE
  5
172
100
AcDbEntity
  8
Calque_1
 62
1
100
AcDbLine
 10
166.248988
 20
44.309731
 30
0.0
 11
164.959558
 21
43.597972
 31
0.0
  0
LINE
  5
173
100
AcDbEntity
  8
Calque_1
 62
1
100
AcDbLine
 10
164.959558
 20
43.597972
 30
0.0
 11
155.363764
 21
60.218474
 31
0.0
  0
LINE
  5
174
100
AcDbEntity
  8
Calque_1
 62
7
100
AcDbLine
 10
145.712426
 20
10.215493
 30
0.0
 11
145.716744
 21
32.450973
 31
0.0
  0
LINE
  5
175
100
AcDbEntity
  8
Calque_1
 62
7
100
AcDbLine
 10
126.522068
 20
43.542116
 30
0.0
 11
145.691165
 21
32.495276
 31
0.0
  0
LINE
  5
176
100
AcDbEntity
  8
Calque_1
 62
7
100
AcDbLine
 10
164.956036
 20
43.603940
 30
0.0
 11
145.787515
 21
32.496439
 31
0.0
  0
LINE
  5
177
100
AcDbEntity
  8
Calque_1
 62
7
100
AcDbLine
 10
69.817025
 20
70.166849
 30
0.0
 11
76.043911
 21
70.166849
 31
0.0
  0
SPLINE
  5
178
100
AcDbEntity
  8
Calque_1
 62
7
100
AcDbSpline
 70
8
 71
3
 72
8
 73
4
 74
0
 40
0
 40
0
 40
0
 40
0
 40
1
 40
1
 40
1
 40
1
 10
76.043911
 20
70.166849
 30
0.0
 10
76.230364
 20
70.166849
 30
0.0
 10
76.380467
 20
70.016744
 30
0.0
 10
76.380467
 20
69.830291
 30
0.0
  0
LINE
  5
179
100
AcDbEntity
  8
Calque_1
 62
7
100
AcDbLine
 10
76.380467
 20
69.830291
 30
0.0
 11
76.380467
 21
63.603405
 31
0.0
  0
SPLINE
  5
17a
100
AcDbEntity
  8
Calque_1
 62
7
100
AcDbSpline
 70
8
 71
3
 72
8
 73
4
 74
0
 40
0
 40
0
 40
0
 40
0
 40
1
 40
1
 40
1
 40
1
 10
76.380467
 20
63.603405
 30
0.0
 10
76.380467
 20
63.416952
 30
0.0
 10
76.230364
 20
63.266849
 30
0.0
 10
76.043911
 20
63.266849
 30
0.0
  0
LINE
  5
17b
100
AcDbEntity
  8
Calque_1
 62
7
100
AcDbLine
 10
76.043911
 20
63.266849
 30
0.0
 11
69.817025
 21
63.266849
 31
0.0
  0
SPLINE
  5
17c
100
AcDbEntity
  8
Calque_1
 62
7
100
AcDbSpline
 70
8
 71
3
 72
8
 73
4
 74
0
 40
0
 40
0
 40
0
 40
0
 40
1
 40
1
 40
1
 40
1
 10
69.817025
 20
63.266849
 30
0.0
 10
69.630572
 20
63.266849
 30
0.0
 10
69.480467
 20
63.416952
 30
0.0
 10
69.480467
 20
63.603405
 30
0.0
  0
LINE
  5
17d
100
AcDbEntity
  8
Calque_1
 62
7
100
AcDbLine
 10
69.480467
 20
63.603405
 30
0.0
 11
69.480467
 21
69.830291
 31
0.0
  0
SPLINE
  5
17e
100
AcDbEntity
  8
Calque_1
 62
7
100
AcDbSpline
 70
8
 71
3
 72
8
 73
4
 74
0
 40
0
 40
0
 40
0
 40
0
 40
1
 40
1
 40
1
 40
1
 10
69.480467
 20
69.830291
 30
0.0
 10
69.480467
 20
70.016744
 30
0.0
 10
69.630572
 20
70.166849
 30
0.0
 10
69.817025
 20
70.166849
 30
0.0
  0
LINE
  5
17f
100
AcDbEntity
  8
Calque_1
 62
7
100
AcDbLine
 10
69.817025
 20
70.166849
 30
0.0
 11
69.817025
 21
70.166849
 31
0.0
  0
SPLINE
  5
180
100
AcDbEntity
  8
Calque_1
 62
7
100
AcDbSpline
 70
8
 71
3
 72
8
 73
4
 74
0
 40
0
 40
0
 40
0
 40
0
 40
1
 40
1
 40
1
 40
1
 10
124.118243
 20
66.716849
 30
0.0
 10
124.118243
 20
65.801852
 30
0.0
 10
123.754762
 20
64.924331
 30
0.0
 10
123.107761
 20
64.277330
 30
0.0
  0
SPLINE
  5
181
100
AcDbEntity
  8
Calque_1
 62
7
100
AcDbSpline
 70
8
 71
3
 72
8
 73
4
 74
0
 40
0
 40
0
 40
0
 40
0
 40
1
 40
1
 40
1
 40
1
 10
123.107761
 20
64.277330
 30
0.0
 10
122.460761
 20
63.630330
 30
0.0
 10
121.583240
 20
63.266849
 30
0.0
 10
120.668243
 20
63.266849
 30
0.0
  0
SPLINE
  5
182
100
AcDbEntity
  8
Calque_1
 62
7
100
AcDbSpline
 70
8
 71
3
 72
8
 73
4
 74
0
 40
0
 40
0
 40
0
 40
0
 40
1
 40
1
 40
1
 40
1
 10
120.668243
 20
63.266849
 30
0.0
 10
119.753246
 20
63.266849
 30
0.0
 10
118.875725
 20
63.630330
 30
0.0
 10
118.228724
 20
64.277330
 30
0.0
  0
SPLINE
  5
183
100
AcDbEntity
  8
Calque_1
 62
7
100
AcDbSpline
 70
8
 71
3
 72
8
 73
4
 74
0
 40
0
 40
0
 40
0
 40
0
 40
1
 40
1
 40
1
 40
1
 10
118.228724
 20
64.277330
 30
0.0
 10
117.581724
 20
64.924331
 30
0.0
 10
117.218243
 20
65.801852
 30
0.0
 10
117.218243
 20
66.716849
 30
0.0
  0
SPLINE
  5
184
100
AcDbEntity
  8
Calque_1
 62
7
100
AcDbSpline
 70
8
 71
3
 72
8
 73
4
 74
0
 40
0
 40
0
 40
0
 40
0
 40
1
 40
1
 40
1
 40
1
 10
117.218243
 20
66.716849
 30
0.0
 10
117.218243
 20
67.631846
 30
0.0
 10
117.581724
 20
68.509367
 30
0.0
 10
118.228724
 20
69.156368
 30
0.0
  0
SPLINE
  5
185
100
AcDbEntity
  8
Calque_1
 62
7
100
AcDbSpline
 70
8
 71
3
 72
8
 73
4
 74
0
 40
0
 40
0
 40
0
 40
0
 40
1
 40
1
 40
1
 40
1
 10
118.228724
 20
69.156368
 30
0.0
 10
118.875725
 20
69.803368
 30
0.0
 10
119.753246
 20
70.166849
 30
0.0
 10
120.668243
 20
70.166849
 30
0.0
  0
SPLINE
  5
186
100
AcDbEntity
  8
Calque_1
 62
7
100
AcDbSpline
 70
8
 71
3
 72
8
 73
4
 74
0
 40
0
 40
0
 40
0
 40
0
 40
1
 40
1
 40
1
 40
1
 10
120.668243
 20
70.166849
 30
0.0
 10
121.583240
 20
70.166849
 30
0.0
 10
122.460761
 20
69.803368
 30
0.0
 10
123.107761
 20
69.156368
 30
0.0
  0
SPLINE
  5
187
100
AcDbEntity
  8
Calque_1
 62
7
100
AcDbSpline
 70
8
 71
3
 72
8
 73
4
 74
0
 40
0
 40
0
 40
0
 40
0
 40
1
 40
1
 40
1
 40
1
 10
123.107761
 20
69.156368
 30
0.0
 10
123.754762
 20
68.509367
 30
0.0
 10
124.118243
 20
67.631846
 30
0.0
 10
124.118243
 20
66.716849
 30
0.0
  0
LINE
  5
188
100
AcDbEntity
  8
Calque_1
 62
7
100
AcDbLine
 10
124.118243
 20
66.716849
 30
0.0
 11
124.118243
 21
66.716849
 31
0.0
  0
LINE
  5
189
100
AcDbEntity
  8
Calque_1
 62
7
100
AcDbLine
 10
96.799355
 20
21.461119
 30
0.0
 11
98.756055
 21
24.850221
 31
0.0
  0
LINE
  5
18a
100
AcDbEntity
  8
Calque_1
 62
7
100
AcDbLine
 10
98.756055
 20
24.850221
 30
0.0
 11
100.712753
 21
28.239323
 31
0.0
  0
LINE
  5
18b
100
AcDbEntity
  8
Calque_1
 62
7
100
AcDbLine
 10
100.712753
 20
28.239323
 30
0.0
 11
96.799355
 21
28.239320
 31
0.0
  0
LINE
  5
18c
100
AcDbEntity
  8
Calque_1
 62
7
100
AcDbLine
 10
96.799355
 20
28.239320
 30
0.0
 11
92.885957
 21
28.239320
 31
0.0
  0
LINE
  5
18d
100
AcDbEntity
  8
Calque_1
 62
7
100
AcDbLine
 10
92.885957
 20
28.239320
 30
0.0
 11
94.842657
 21
24.850221
 31
0.0
  0
LINE
  5
18e
100
AcDbEntity
  8
Calque_1
 62
7
100
AcDbLine
 10
94.842657
 20
24.850221
 30
0.0
 11
96.799355
 21
21.461119
 31
0.0
  0
LINE
  5
18f
100
AcDbEntity
  8
Calque_1
 62
1
100
AcDbLine
 10
87.188946
 20
24.842457
 30
0.0
 11
85.913626
 21
24.106151
 31
0.0
  0
SPLINE
  5
190
100
AcDbEntity
  8
Calque_1
 62
1
100
AcDbSpline
 70
8
 71
3
 72
8
 73
4
 74
0
 40
0
 40
0
 40
0
 40
0
 40
1
 40
1
 40
1
 40
1
 10
85.913626
 20
24.106151
 30
0.0
 10
85.189568
 20
23.688115
 30
0.0
 10
84.943165
 20
22.768733
 30
0.0
 10
85.361159
 20
22.044751
 30
0.0
  0
LINE
  5
191
100
AcDbEntity
  8
Calque_1
 62
1
100
AcDbLine
 10
85.361159
 20
22.044751
 30
0.0
 11
93.476329
 21
7.988863
 31
0.0
  0
SPLINE
  5
192
100
AcDbEntity
  8
Calque_1
 62
1
100
AcDbSpline
 70
8
 71
3
 72
8
 73
4
 74
0
 40
0
 40
0
 40
0
 40
0
 40
1
 40
1
 40
1
 40
1
 10
93.476329
 20
7.988863
 30
0.0
 10
93.894317
 20
7.264884
 30
0.0
 10
94.813761
 20
7.018526
 30
0.0
 10
95.537788
 20
7.436613
 30
0.0
  0
LINE
  5
193
100
AcDbEntity
  8
Calque_1
 62
1
100
AcDbLine
 10
95.537788
 20
7.436613
 30
0.0
 11
96.794543
 21
8.186277
 31
0.0
  0
LINE
  5
194
100
AcDbEntity
  8
Calque_1
 62
1
100
AcDbLine
 10
96.794543
 20
8.186277
 30
0.0
 11
106.387570
 21
24.845545
 31
0.0
  0
LINE
  5
195
100
AcDbEntity
  8
Calque_1
 62
1
100
AcDbLine
 10
106.387570
 20
24.845545
 30
0.0
 11
107.677057
 21
24.133893
 31
0.0
  0
SPLINE
  5
196
100
AcDbEntity
  8
Calque_1
 62
1
100
AcDbSpline
 70
8
 71
3
 72
8
 73
4
 74
0
 40
0
 40
0
 40
0
 40
0
 40
1
 40
1
 40
1
 40
1
 10
107.677057
 20
24.133893
 30
0.0
 10
108.409006
 20
23.729940
 30
0.0
 10
109.320522
 20
23.962319
 30
0.0
 10
109.738575
 20
24.686332
 30
0.0
  0
LINE
  5
197
100
AcDbEntity
  8
Calque_1
 62
1
100
AcDbLine
 10
109.738575
 20
24.686332
 30
0.0
 11
117.855091
 21
38.742996
 31
0.0
  0
SPLINE
  5
198
100
AcDbEntity
  8
Calque_1
 62
1
100
AcDbSpline
 70
8
 71
3
 72
8
 73
4
 74
0
 40
0
 40
0
 40
0
 40
0
 40
1
 40
1
 40
1
 40
1
 10
117.855091
 20
38.742996
 30
0.0
 10
118.273153
 20
39.467012
 30
0.0
 10
118.026871
 20
40.386427
 30
0.0
 10
117.302813
 20
40.804350
 30
0.0
  0
LINE
  5
199
100
AcDbEntity
  8
Calque_1
 62
1
100
AcDbLine
 10
117.302813
 20
40.804350
 30
0.0
 11
116.041686
 21
41.565013
 31
0.0
  0
LINE
  5
19a
100
AcDbEntity
  8
Calque_1
 62
1
100
AcDbLine
 10
116.041686
 20
41.565013
 30
0.0
 11
125.639167
 21
58.186496
 31
0.0
  0
LINE
  5
19b
100
AcDbEntity
  8
Calque_1
 62
1
100
AcDbLine
 10
125.639167
 20
58.186496
 30
0.0
 11
126.928572
 21
57.474802
 31
0.0
  0
SPLINE
  5
19c
100
AcDbEntity
  8
Calque_1
 62
1
100
AcDbSpline
 70
8
 71
3
 72
8
 73
4
 74
0
 40
0
 40
0
 40
0
 40
0
 40
1
 40
1
 40
1
 40
1
 10
126.928572
 20
57.474802
 30
0.0
 10
127.660499
 20
57.070812
 30
0.0
 10
128.572029
 20
57.303217
 30
0.0
 10
128.990090
 20
58.027241
 30
0.0
  0
LINE
  5
19d
100
AcDbEntity
  8
Calque_1
 62
1
100
AcDbLine
 10
128.990090
 20
58.027241
 30
0.0
 11
137.106606
 21
72.083906
 31
0.0
  0
SPLINE
  5
19e
100
AcDbEntity
  8
Calque_1
 62
1
100
AcDbSpline
 70
8
 71
3
 72
8
 73
4
 74
0
 40
0
 40
0
 40
0
 40
0
 40
1
 40
1
 40
1
 40
1
 10
137.106606
 20
72.083906
 30
0.0
 10
137.524665
 20
72.807921
 30
0.0
 10
137.259613
 20
73.696399
 30
0.0
 10
136.554326
 20
74.145260
 30
0.0
  0
LINE
  5
19f
100
AcDbEntity
  8
Calque_1
 62
1
100
AcDbLine
 10
136.554326
 20
74.145260
 30
0.0
 11
135.325849
 21
74.871587
 31
0.0
  0
LINE
  5
1a0
100
AcDbEntity
  8
Calque_1
 62
1
100
AcDbLine
 10
135.325849
 20
74.871587
 30
0.0
 11
116.103964
 21
74.871022
 31
0.0
  0
LINE
  5
1a1
100
AcDbEntity
  8
Calque_1
 62
1
100
AcDbLine
 10
116.103964
 20
74.871022
 30
0.0
 11
116.075996
 21
76.343263
 31
0.0
  0
SPLINE
  5
1a2
100
AcDbEntity
  8
Calque_1
 62
1
100
AcDbSpline
 70
8
 71
3
 72
8
 73
4
 74
0
 40
0
 40
0
 40
0
 40
0
 40
1
 40
1
 40
1
 40
1
 10
116.075996
 20
76.343263
 30
0.0
 10
116.060135
 20
77.179126
 30
0.0
 10
115.403003
 20
77.852424
 30
0.0
 10
114.566954
 20
77.852376
 30
0.0
  0
LINE
  5
1a3
100
AcDbEntity
  8
Calque_1
 62
1
100
AcDbLine
 10
114.566954
 20
77.852376
 30
0.0
 11
98.335265
 21
77.851529
 31
0.0
  0
SPLINE
  5
1a4
100
AcDbEntity
  8
Calque_1
 62
1
100
AcDbSpline
 70
8
 71
3
 72
8
 73
4
 74
0
 40
0
 40
0
 40
0
 40
0
 40
1
 40
1
 40
1
 40
1
 10
98.335265
 20
77.851529
 30
0.0
 10
97.499210
 20
77.851481
 30
0.0
 10
96.826095
 20
77.178435
 30
0.0
 10
96.826076
 20
76.342427
 30
0.0
  0
LINE
  5
1a5
100
AcDbEntity
  8
Calque_1
 62
1
100
AcDbLine
 10
96.826076
 20
76.342427
 30
0.0
 11
96.797695
 21
74.869998
 31
0.0
  0
LINE
  5
1a6
100
AcDbEntity
  8
Calque_1
 62
1
100
AcDbLine
 10
96.797695
 20
74.869998
 30
0.0
 11
77.576104
 21
74.869151
 31
0.0
  0
LINE
  5
1a7
100
AcDbEntity
  8
Calque_1
 62
1
100
AcDbLine
 10
77.576104
 20
74.869151
 30
0.0
 11
77.576161
 21
76.341603
 31
0.0
  0
SPLINE
  5
1a8
100
AcDbEntity
  8
Calque_1
 62
1
100
AcDbSpline
 70
8
 71
3
 72
8
 73
4
 74
0
 40
0
 40
0
 40
0
 40
0
 40
1
 40
1
 40
1
 40
1
 10
77.576161
 20
76.341603
 30
0.0
 10
77.576189
 20
77.177616
 30
0.0
 10
76.903165
 20
77.850600
 30
0.0
 10
76.067118
 20
77.850561
 30
0.0
  0
LINE
  5
1a9
100
AcDbEntity
  8
Calque_1
 62
1
100
AcDbLine
 10
76.067118
 20
77.850561
 30
0.0
 11
59.835429
 21
77.849714
 31
0.0
  0
SPLINE
  5
1aa
100
AcDbEntity
  8
Calque_1
 62
1
100
AcDbSpline
 70
8
 71
3
 72
8
 73
4
 74
0
 40
0
 40
0
 40
0
 40
0
 40
1
 40
1
 40
1
 40
1
 10
59.835429
 20
77.849714
 30
0.0
 10
58.999377
 20
77.849675
 30
0.0
 10
58.329105
 20
77.176614
 30
0.0
 10
58.326243
 20
76.340613
 30
0.0
  0
LINE
  5
1ab
100
AcDbEntity
  8
Calque_1
 62
1
100
AcDbLine
 10
58.326243
 20
76.340613
 30
0.0
 11
58.321163
 21
74.859708
 31
0.0
  0
LINE
  5
1ac
100
AcDbEntity
  8
Calque_1
 62
1
100
AcDbLine
 10
58.321163
 20
74.859708
 30
0.0
 11
67.926433
 21
58.205989
 31
0.0
  0
LINE
  5
1ad
100
AcDbEntity
  8
Calque_1
 62
1
100
AcDbLine
 10
67.926433
 20
58.205989
 30
0.0
 11
66.665294
 21
57.445304
 31
0.0
  0
SPLINE
  5
1ae
100
AcDbEntity
  8
Calque_1
 62
1
100
AcDbSpline
 70
8
 71
3
 72
8
 73
4
 74
0
 40
0
 40
0
 40
0
 40
0
 40
1
 40
1
 40
1
 40
1
 10
66.665294
 20
57.445304
 30
0.0
 10
65.949384
 20
57.013470
 30
0.0
 10
65.694837
 20
56.107887
 30
0.0
 10
66.112827
 20
55.383905
 30
0.0
  0
LINE
  5
1af
100
AcDbEntity
  8
Calque_1
 62
1
100
AcDbLine
 10
66.112827
 20
55.383905
 30
0.0
 11
74.228000
 21
41.328017
 31
0.0
  0
SPLINE
  5
1b0
100
AcDbEntity
  8
Calque_1
 62
1
100
AcDbSpline
 70
8
 71
3
 72
8
 73
4
 74
0
 40
0
 40
0
 40
0
 40
0
 40
1
 40
1
 40
1
 40
1
 10
74.228000
 20
41.328017
 30
0.0
 10
74.645988
 20
40.604038
 30
0.0
 10
75.565381
 20
40.357765
 30
0.0
 10
76.289456
 20
40.775767
 30
0.0
  0
LINE
  5
1b1
100
AcDbEntity
  8
Calque_1
 62
1
100
AcDbLine
 10
76.289456
 20
40.775767
 30
0.0
 11
77.578887
 21
41.487526
 31
0.0
  0
LINE
  5
1b2
100
AcDbEntity
  8
Calque_1
 62
1
100
AcDbLine
 10
77.578887
 20
41.487526
 30
0.0
 11
87.174682
 21
24.867024
 31
0.0
  0
LINE
  5
1b3
100
AcDbEntity
  8
Calque_1
 62
7
100
AcDbLine
 10
96.826030
 20
74.869927
 30
0.0
 11
96.821713
 21
52.634447
 31
0.0
  0
LINE
  5
1b4
100
AcDbEntity
  8
Calque_1
 62
7
100
AcDbLine
 10
116.016389
 20
41.543304
 30
0.0
 11
96.847292
 21
52.590144
 31
0.0
  0
LINE
  5
1b5
100
AcDbEntity
  8
Calque_1
 62
7
100
AcDbLine
 10
77.582421
 20
41.481479
 30
0.0
 11
96.750941
 21
52.588981
 31
0.0
  0
LINE
  5
1b6
100
AcDbEntity
  8
Calque_1
 62
7
100
AcDbLine
 10
191.229542
 20
28.254532
 30
0.0
 11
197.916109
 21
21.329157
 31
0.0
  0
LINE
  5
1b7
100
AcDbEntity
  8
Calque_1
 62
7
100
AcDbLine
 10
197.916109
 20
28.254532
 30
0.0
 11
191.229542
 21
21.329157
 31
0.0
  0
LINE
  5
1b8
100
AcDbEntity
  8
Calque_1
 62
7
100
AcDbLine
 10
167.498508
 20
70.166793
 30
0.0
 11
173.725394
 21
70.166793
 31
0.0
  0
SPLINE
  5
1b9
100
AcDbEntity
  8
Calque_1
 62
7
100
AcDbSpline
 70
8
 71
3
 72
8
 73
4
 74
0
 40
0
 40
0
 40
0
 40
0
 40
1
 40
1
 40
1
 40
1
 10
173.725394
 20
70.166793
 30
0.0
 10
173.911847
 20
70.166793
 30
0.0
 10
174.061953
 20
70.016687
 30
0.0
 10
174.061953
 20
69.830234
 30
0.0
  0
LINE
  5
1ba
100
AcDbEntity
  8
Calque_1
 62
7
100
AcDbLine
 10
174.061953
 20
69.830234
 30
0.0
 11
174.061953
 21
63.603348
 31
0.0
  0
SPLINE
  5
1bb
100
AcDbEntity
  8
Calque_1
 62
7
100
AcDbSpline
 70
8
 71
3
 72
8
 73
4
 74
0
 40
0
 40
0
 40
0
 40
0
 40
1
 40
1
 40
1
 40
1
 10
174.061953
 20
63.603348
 30
0.0
 10
174.061953
 20
63.416895
 30
0.0
 10
173.911847
 20
63.266792
 30
0.0
 10
173.725394
 20
63.266792
 30
0.0
  0
LINE
  5
1bc
100
AcDbEntity
  8
Calque_1
 62
7
100
AcDbLine
 10
173.725394
 20
63.266792
 30
0.0
 11
167.498508
 21
63.266792
 31
0.0
  0
SPLINE
  5
1bd
100
AcDbEntity
  8
Calque_1
 62
7
100
AcDbSpline
 70
8
 71
3
 72
8
 73
4
 74
0
 40
0
 40
0
 40
0
 40
0
 40
1
 40
1
 40
1
 40
1
 10
167.498508
 20
63.266792
 30
0.0
 10
167.312055
 20
63.266792
 30
0.0
 10
167.161952
 20
63.416895
 30
0.0
 10
167.161952
 20
63.603348
 30
0.0
  0
LINE
  5
1be
100
AcDbEntity
  8
Calque_1
 62
7
100
AcDbLine
 10
167.161952
 20
63.603348
 30
0.0
 11
167.161952
 21
69.830234
 31
0.0
  0
SPLINE
  5
1bf
100
AcDbEntity
  8
Calque_1
 62
7
100
AcDbSpline
 70
8
 71
3
 72
8
 73
4
 74
0
 40
0
 40
0
 40
0
 40
0
 40
1
 40
1
 40
1
 40
1
 10
167.161952
 20
69.830234
 30
0.0
 10
167.161952
 20
70.016687
 30
0.0
 10
167.312055
 20
70.166793
 30
0.0
 10
167.498508
 20
70.166793
 30
0.0
  0
LINE
  5
1c0
100
AcDbEntity
  8
Calque_1
 62
7
100
AcDbLine
 10
167.498508
 20
70.166793
 30
0.0
 11
167.498508
 21
70.166793
 31
0.0
  0
LINE
  5
1c1
100
AcDbEntity
  8
Calque_1
 62
7
100
AcDbLine
 10
218.611611
 20
63.388588
 30
0.0
 11
220.568308
 21
66.777691
 31
0.0
  0
LINE
  5
1c2
100
AcDbEntity
  8
Calque_1
 62
7
100
AcDbLine
 10
220.568308
 20
66.777691
 30
0.0
 11
222.525009
 21
70.166793
 31
0.0
  0
LINE
  5
1c3
100
AcDbEntity
  8
Calque_1
 62
7
100
AcDbLine
 10
222.525009
 20
70.166793
 30
0.0
 11
218.611611
 21
70.166793
 31
0.0
  0
LINE
  5
1c4
100
AcDbEntity
  8
Calque_1
 62
7
100
AcDbLine
 10
218.611611
 20
70.166793
 30
0.0
 11
214.698213
 21
70.166793
 31
0.0
  0
LINE
  5
1c5
100
AcDbEntity
  8
Calque_1
 62
7
100
AcDbLine
 10
214.698213
 20
70.166793
 30
0.0
 11
216.654911
 21
66.777691
 31
0.0
  0
LINE
  5
1c6
100
AcDbEntity
  8
Calque_1
 62
7
100
AcDbLine
 10
216.654911
 20
66.777691
 30
0.0
 11
218.611611
 21
63.388588
 31
0.0
  0
LINE
  5
1c7
100
AcDbEntity
  8
Calque_1
 62
1
100
AcDbLine
 10
184.962416
 20
24.842401
 30
0.0
 11
183.687096
 21
24.106094
 31
0.0
  0
SPLINE
  5
1c8
100
AcDbEntity
  8
Calque_1
 62
1
100
AcDbSpline
 70
8
 71
3
 72
8
 73
4
 74
0
 40
0
 40
0
 40
0
 40
0
 40
1
 40
1
 40
1
 40
1
 10
183.687096
 20
24.106094
 30
0.0
 10
182.963039
 20
23.688059
 30
0.0
 10
182.716637
 20
22.768677
 30
0.0
 10
183.134628
 20
22.044695
 30
0.0
  0
LINE
  5
1c9
100
AcDbEntity
  8
Calque_1
 62
1
100
AcDbLine
 10
183.134628
 20
22.044695
 30
0.0
 11
191.249799
 21
7.988805
 31
0.0
  0
SPLINE
  5
1ca
100
AcDbEntity
  8
Calque_1
 62
1
100
AcDbSpline
 70
8
 71
3
 72
8
 73
4
 74
0
 40
0
 40
0
 40
0
 40
0
 40
1
 40
1
 40
1
 40
1
 10
191.249799
 20
7.988805
 30
0.0
 10
191.667788
 20
7.264828
 30
0.0
 10
192.587231
 20
7.018470
 30
0.0
 10
193.311258
 20
7.436557
 30
0.0
  0
LINE
  5
1cb
100
AcDbEntity
  8
Calque_1
 62
1
100
AcDbLine
 10
193.311258
 20
7.436557
 30
0.0
 11
194.568011
 21
8.186221
 31
0.0
  0
LINE
  5
1cc
100
AcDbEntity
  8
Calque_1
 62
1
100
AcDbLine
 10
194.568011
 20
8.186221
 30
0.0
 11
204.161041
 21
24.845488
 31
0.0
  0
LINE
  5
1cd
100
AcDbEntity
  8
Calque_1
 62
1
100
AcDbLine
 10
204.161041
 20
24.845488
 30
0.0
 11
205.450528
 21
24.133837
 31
0.0
  0
SPLINE
  5
1ce
100
AcDbEntity
  8
Calque_1
 62
1
100
AcDbSpline
 70
8
 71
3
 72
8
 73
4
 74
0
 40
0
 40
0
 40
0
 40
0
 40
1
 40
1
 40
1
 40
1
 10
205.450528
 20
24.133837
 30
0.0
 10
206.182477
 20
23.729885
 30
0.0
 10
207.093991
 20
23.962262
 30
0.0
 10
207.512046
 20
24.686275
 30
0.0
  0
LINE
  5
1cf
100
AcDbEntity
  8
Calque_1
 62
1
100
AcDbLine
 10
207.512046
 20
24.686275
 30
0.0
 11
215.628562
 21
38.742941
 31
0.0
  0
SPLINE
  5
1d0
100
AcDbEntity
  8
Calque_1
 62
1
100
AcDbSpline
 70
8
 71
3
 72
8
 73
4
 74
0
 40
0
 40
0
 40
0
 40
0
 40
1
 40
1
 40
1
 40
1
 10
215.628562
 20
38.742941
 30
0.0
 10
216.046622
 20
39.466956
 30
0.0
 10
215.800342
 20
40.386371
 30
0.0
 10
215.076283
 20
40.804294
 30
0.0
  0
LINE
  5
1d1
100
AcDbEntity
  8
Calque_1
 62
1
100
AcDbLine
 10
215.076283
 20
40.804294
 30
0.0
 11
213.815156
 21
41.564956
 31
0.0
  0
LINE
  5
1d2
100
AcDbEntity
  8
Calque_1
 62
1
100
AcDbLine
 10
213.815156
 20
41.564956
 30
0.0
 11
223.412638
 21
58.186439
 31
0.0
  0
LINE
  5
1d3
100
AcDbEntity
  8
Calque_1
 62
1
100
AcDbLine
 10
223.412638
 20
58.186439
 30
0.0
 11
224.702041
 21
57.474746
 31
0.0
  0
SPLINE
  5
1d4
100
AcDbEntity
  8
Calque_1
 62
1
100
AcDbSpline
 70
8
 71
3
 72
8
 73
4
 74
0
 40
0
 40
0
 40
0
 40
0
 40
1
 40
1
 40
1
 40
1
 10
224.702041
 20
57.474746
 30
0.0
 10
225.433968
 20
57.070755
 30
0.0
 10
226.345497
 20
57.303161
 30
0.0
 10
226.763559
 20
58.027184
 30
0.0
  0
LINE
  5
1d5
100
AcDbEntity
  8
Calque_1
 62
1
100
AcDbLine
 10
226.763559
 20
58.027184
 30
0.0
 11
234.880075
 21
72.083850
 31
0.0
  0
SPLINE
  5
1d6
100
AcDbEntity
  8
Calque_1
 62
1
100
AcDbSpline
 70
8
 71
3
 72
8
 73
4
 74
0
 40
0
 40
0
 40
0
 40
0
 40
1
 40
1
 40
1
 40
1
 10
234.880075
 20
72.083850
 30
0.0
 10
235.298135
 20
72.807865
 30
0.0
 10
235.033084
 20
73.696344
 30
0.0
 10
234.327797
 20
74.145203
 30
0.0
  0
LINE
  5
1d7
100
AcDbEntity
  8
Calque_1
 62
1
100
AcDbLine
 10
234.327797
 20
74.145203
 30
0.0
 11
233.099319
 21
74.871530
 31
0.0
  0
LINE
  5
1d8
100
AcDbEntity
  8
Calque_1
 62
1
100
AcDbLine
 10
233.099319
 20
74.871530
 30
0.0
 11
213.877435
 21
74.871006
 31
0.0
  0
LINE
  5
1d9
100
AcDbEntity
  8
Calque_1
 62
1
100
AcDbLine
 10
213.877435
 20
74.871006
 30
0.0
 11
213.849477
 21
76.343246
 31
0.0
  0
SPLINE
  5
1da
100
AcDbEntity
  8
Calque_1
 62
1
100
AcDbSpline
 70
8
 71
3
 72
8
 73
4
 74
0
 40
0
 40
0
 40
0
 40
0
 40
1
 40
1
 40
1
 40
1
 10
213.849477
 20
76.343246
 30
0.0
 10
213.833606
 20
77.179108
 30
0.0
 10
213.176483
 20
77.852408
 30
0.0
 10
212.340436
 20
77.852358
 30
0.0
  0
LINE
  5
1db
100
AcDbEntity
  8
Calque_1
 62
1
100
AcDbLine
 10
212.340436
 20
77.852358
 30
0.0
 11
196.108744
 21
77.851434
 31
0.0
  0
SPLINE
  5
1dc
100
AcDbEntity
  8
Calque_1
 62
1
100
AcDbSpline
 70
8
 71
3
 72
8
 73
4
 74
0
 40
0
 40
0
 40
0
 40
0
 40
1
 40
1
 40
1
 40
1
 10
196.108744
 20
77.851434
 30
0.0
 10
195.272690
 20
77.851385
 30
0.0
 10
194.599577
 20
77.178339
 30
0.0
 10
194.599558
 20
76.342331
 30
0.0
  0
LINE
  5
1dd
100
AcDbEntity
  8
Calque_1
 62
1
100
AcDbLine
 10
194.599558
 20
76.342331
 30
0.0
 11
194.571176
 21
74.869902
 31
0.0
  0
LINE
  5
1de
100
AcDbEntity
  8
Calque_1
 62
1
100
AcDbLine
 10
194.571176
 20
74.869902
 30
0.0
 11
175.349586
 21
74.868958
 31
0.0
  0
LINE
  5
1df
100
AcDbEntity
  8
Calque_1
 62
1
100
AcDbLine
 10
175.349586
 20
74.868958
 30
0.0
 11
175.349641
 21
76.341410
 31
0.0
  0
SPLINE
  5
1e0
100
AcDbEntity
  8
Calque_1
 62
1
100
AcDbSpline
 70
8
 71
3
 72
8
 73
4
 74
0
 40
0
 40
0
 40
0
 40
0
 40
1
 40
1
 40
1
 40
1
 10
175.349641
 20
76.341410
 30
0.0
 10
175.349670
 20
77.177424
 30
0.0
 10
174.676647
 20
77.850408
 30
0.0
 10
173.840598
 20
77.850370
 30
0.0
  0
LINE
  5
1e1
100
AcDbEntity
  8
Calque_1
 62
1
100
AcDbLine
 10
173.840598
 20
77.850370
 30
0.0
 11
157.608910
 21
77.849593
 31
0.0
  0
SPLINE
  5
1e2
100
AcDbEntity
  8
Calque_1
 62
1
100
AcDbSpline
 70
8
 71
3
 72
8
 73
4
 74
0
 40
0
 40
0
 40
0
 40
0
 40
1
 40
1
 40
1
 40
1
 10
157.608910
 20
77.849593
 30
0.0
 10
156.772858
 20
77.849553
 30
0.0
 10
156.102585
 20
77.176492
 30
0.0
 10
156.099724
 20
76.340490
 30
0.0
  0
LINE
  5
1e3
100
AcDbEntity
  8
Calque_1
 62
1
100
AcDbLine
 10
156.099724
 20
76.340490
 30
0.0
 11
156.094644
 21
74.859586
 31
0.0
  0
LINE
  5
1e4
100
AcDbEntity
  8
Calque_1
 62
1
100
AcDbLine
 10
156.094644
 20
74.859586
 30
0.0
 11
165.699914
 21
58.205868
 31
0.0
  0
LINE
  5
1e5
100
AcDbEntity
  8
Calque_1
 62
1
100
AcDbLine
 10
165.699914
 20
58.205868
 30
0.0
 11
164.438776
 21
57.445183
 31
0.0
  0
SPLINE
  5
1e6
100
AcDbEntity
  8
Calque_1
 62
1
100
AcDbSpline
 70
8
 71
3
 72
8
 73
4
 74
0
 40
0
 40
0
 40
0
 40
0
 40
1
 40
1
 40
1
 40
1
 10
164.438776
 20
57.445183
 30
0.0
 10
163.722864
 20
57.013349
 30
0.0
 10
163.468317
 20
56.107765
 30
0.0
 10
163.886308
 20
55.383783
 30
0.0
  0
LINE
  5
1e7
100
AcDbEntity
  8
Calque_1
 62
1
100
AcDbLine
 10
163.886308
 20
55.383783
 30
0.0
 11
172.001480
 21
41.327894
 31
0.0
  0
SPLINE
  5
1e8
100
AcDbEntity
  8
Calque_1
 62
1
100
AcDbSpline
 70
8
 71
3
 72
8
 73
4
 74
0
 40
0
 40
0
 40
0
 40
0
 40
1
 40
1
 40
1
 40
1
 10
172.001480
 20
41.327894
 30
0.0
 10
172.419468
 20
40.603917
 30
0.0
 10
173.338862
 20
40.357644
 30
0.0
 10
174.062938
 20
40.775646
 30
0.0
  0
LINE
  5
1e9
100
AcDbEntity
  8
Calque_1
 62
1
100
AcDbLine
 10
174.062938
 20
40.775646
 30
0.0
 11
175.352368
 21
41.487405
 31
0.0
  0
LINE
  5
1ea
100
AcDbEntity
  8
Calque_1
 62
1
100
AcDbLine
 10
175.352368
 20
41.487405
 30
0.0
 11
184.948162
 21
24.866903
 31
0.0
  0
LINE
  5
1eb
100
AcDbEntity
  8
Calque_1
 62
7
100
AcDbLine
 10
194.599500
 20
74.869883
 30
0.0
 11
194.595183
 21
52.634404
 31
0.0
  0
LINE
  5
1ec
100
AcDbEntity
  8
Calque_1
 62
7
100
AcDbLine
 10
213.789858
 20
41.543261
 30
0.0
 11
194.620761
 21
52.590101
 31
0.0
  0
LINE
  5
1ed
100
AcDbEntity
  8
Calque_1
 62
7
100
AcDbLine
 10
175.355890
 20
41.481436
 30
0.0
 11
194.524411
 21
52.588937
 31
0.0
  0
ENDSEC
  0
SECTION
  2
OBJECTS
  0
DICTIONARY
  5
C
330
0
100
AcDbDictionary
  3
ACAD_GROUP
350
D
  3
ACAD_MLINESTYLE
350
17
  0
DICTIONARY
  5
D
330
C
100
AcDbDictionary
  0
DICTIONARY
  5
1A
330
C
100
AcDbDictionary
  0
DICTIONARY
  5
17
330
C
100
AcDbDictionary
  3
STANDARD
350
18
  0
DICTIONARY
  5
19
330
C
100
AcDbDictionary
  0
ENDSEC
  0
EOF
